<svg xmlns="http://www.w3.org/2000/svg" xmlns:xlink="http://www.w3.org/1999/xlink" viewBox="0 0 340 544"><defs><style>.a{fill:url(#a);}.b{fill:url(#b);}.aj,.ak,.c,.d,.e,.f{stroke-linecap:square;}.aj,.ak,.ap,.aq,.ar,.as,.c,.d,.e,.f,.g,.h{stroke-miterlimit:10;}.aj,.ak,.ap,.aq,.ar,.as,.at,.c,.d,.e,.f,.g,.h,.i,.j,.k,.l{stroke-width:3px;}.c{fill:url(#c);stroke:url(#d);}.d{fill:url(#e);stroke:url(#f);}.e{fill:url(#g);stroke:url(#h);}.f{fill:url(#i);stroke:url(#j);}.g,.h,.i,.j,.k,.l{stroke-linecap:round;}.g{fill:url(#k);stroke:url(#l);}.h{fill:url(#m);stroke:url(#n);}.i,.j,.k,.l{stroke-linejoin:round;}.i{fill:url(#o);stroke:url(#p);}.j{fill:url(#q);stroke:url(#r);}.k{fill:url(#s);stroke:url(#t);}.l{fill:url(#u);stroke:url(#v);}.m{fill:url(#w);}.n{fill:url(#x);}.o{fill:url(#y);}.p{fill:url(#z);}.q{fill:url(#aa);}.r{fill:url(#ab);}.s{fill:url(#ac);}.t{fill:url(#ad);}.u{fill:url(#ae);}.v{fill:url(#af);}.w{fill:url(#ag);}.x{fill:url(#ah);}.y{fill:url(#ai);}.z{fill:url(#aj);}.aa{fill:url(#ak);}.ab{fill:url(#al);}.ac{fill:url(#am);}.ad{fill:url(#an);}.ae{fill:url(#ao);}.af{fill:url(#ap);}.ag{fill:url(#aq);}.ah{fill:url(#ar);}.ai{fill:url(#as);}.aj{fill:url(#at);stroke:url(#au);}.ak{fill:url(#av);stroke:url(#aw);}.al{fill:url(#ax);}.am{fill:url(#ay);}.an{fill:url(#az);}.ao{fill:url(#ba);}.ap,.aq,.ar,.as,.at{fill:none;}.ap{stroke:url(#bb);}.aq{stroke:url(#bc);}.ar{stroke:url(#bd);}.as{stroke:url(#be);}.at{stroke-miterlimit:10;stroke:url(#bf);}.au{fill:url(#bg);}.av{fill:url(#bh);}.aw{fill:url(#bi);}.ax{fill:url(#bj);}.ay{fill:#fff;}</style><radialGradient id="a" cx="170" cy="274" r="275.91" gradientTransform="matrix(1, 0, 0, -1, 0, 546)" gradientUnits="userSpaceOnUse"><stop offset="0" stop-color="#2d468c"/><stop offset="1" stop-color="#282d3c"/></radialGradient><linearGradient id="b" x1="2.5" y1="274" x2="337.5" y2="274" gradientTransform="matrix(1, 0, 0, -1, 0, 546)" gradientUnits="userSpaceOnUse"><stop offset="0" stop-color="#281e28"/><stop offset="0.5" stop-color="#55417d"/><stop offset="1" stop-color="#281e28"/></linearGradient><linearGradient id="c" x1="26.5" y1="48" x2="26.5" y2="196" gradientUnits="userSpaceOnUse"><stop offset="0" stop-color="#caa97a"/><stop offset="0.09" stop-color="#d5bb98"/><stop offset="0.19" stop-color="#dfccb5"/><stop offset="0.3" stop-color="#e6d8c9"/><stop offset="0.4" stop-color="#ebe0d6"/><stop offset="0.5" stop-color="#ece2da"/><stop offset="0.59" stop-color="#ebdfd6"/><stop offset="0.68" stop-color="#e7d7c9"/><stop offset="0.77" stop-color="#e0c9b5"/><stop offset="0.86" stop-color="#d7b598"/><stop offset="0.96" stop-color="#cb9c73"/><stop offset="1" stop-color="#c58e5e"/></linearGradient><linearGradient id="d" x1="25" y1="122" x2="28" y2="122" xlink:href="#c"/><linearGradient id="e" x1="313.5" x2="313.5" xlink:href="#c"/><linearGradient id="f" x1="312" y1="122" x2="315" y2="122" xlink:href="#c"/><linearGradient id="g" x1="26.5" y1="-339" x2="26.5" y2="-191" gradientTransform="matrix(1, 0, 0, -1, 0, 156)" xlink:href="#c"/><linearGradient id="h" x1="25" y1="-265" x2="28" y2="-265" gradientTransform="matrix(1, 0, 0, -1, 0, 156)" xlink:href="#c"/><linearGradient id="i" x1="313.5" y1="-339" x2="313.5" y2="-191" gradientTransform="matrix(1, 0, 0, -1, 0, 156)" xlink:href="#c"/><linearGradient id="j" x1="312" y1="-265" x2="315" y2="-265" gradientTransform="matrix(1, 0, 0, -1, 0, 156)" xlink:href="#c"/><linearGradient id="k" x1="170" y1="207.7" x2="170" y2="231" xlink:href="#c"/><linearGradient id="l" x1="110.5" y1="219.35" x2="229.5" y2="219.35" xlink:href="#c"/><linearGradient id="m" x1="170" y1="313" x2="170" y2="336.3" xlink:href="#c"/><linearGradient id="n" x1="110.5" y1="324.65" x2="229.5" y2="324.65" xlink:href="#c"/><linearGradient id="o" x1="90.25" y1="399" x2="90.25" y2="494" xlink:href="#c"/><linearGradient id="p" x1="49" y1="446.5" x2="131.5" y2="446.5" xlink:href="#c"/><linearGradient id="q" x1="711.25" y1="399" x2="711.25" y2="494" gradientTransform="matrix(-1, 0, 0, 1, 961, 0)" xlink:href="#c"/><linearGradient id="r" x1="670" y1="446.5" x2="752.5" y2="446.5" gradientTransform="matrix(-1, 0, 0, 1, 961, 0)" xlink:href="#c"/><linearGradient id="s" x1="90.25" y1="274" x2="90.25" y2="369" gradientTransform="matrix(1, 0, 0, -1, 0, 418)" xlink:href="#c"/><linearGradient id="t" x1="49" y1="321.5" x2="131.5" y2="321.5" gradientTransform="matrix(1, 0, 0, -1, 0, 418)" xlink:href="#c"/><linearGradient id="u" x1="711.25" y1="274" x2="711.25" y2="369" gradientTransform="translate(961 418) rotate(180)" xlink:href="#c"/><linearGradient id="v" x1="670" y1="321.5" x2="752.5" y2="321.5" gradientTransform="translate(961 418) rotate(180)" xlink:href="#c"/><linearGradient id="w" x1="24.95" y1="167.6" x2="24.95" y2="257.4" xlink:href="#c"/><linearGradient id="x" x1="24.95" y1="286.6" x2="24.95" y2="376.4" xlink:href="#c"/><linearGradient id="y" x1="315.05" y1="286.6" x2="315.05" y2="376.4" xlink:href="#c"/><linearGradient id="z" x1="315.05" y1="167.6" x2="315.05" y2="257.4" xlink:href="#c"/><linearGradient id="aa" x1="170" y1="92.1" x2="170" y2="451.9" xlink:href="#c"/><linearGradient id="ab" x1="170" y1="25" x2="170" y2="150" xlink:href="#c"/><linearGradient id="ac" x1="208" y1="25" x2="208" y2="115.3" xlink:href="#c"/><linearGradient id="ad" x1="208" y1="115.8" x2="208" y2="136.3" xlink:href="#c"/><linearGradient id="ae" x1="208" y1="158" x2="208" y2="178.5" xlink:href="#c"/><linearGradient id="af" x1="208" y1="136.8" x2="208" y2="157.3" xlink:href="#c"/><linearGradient id="ag" x1="132" y1="25" x2="132" y2="115.3" xlink:href="#c"/><linearGradient id="ah" x1="132" y1="115.8" x2="132" y2="136.3" xlink:href="#c"/><linearGradient id="ai" x1="132" y1="158" x2="132" y2="178.5" xlink:href="#c"/><linearGradient id="aj" x1="132" y1="136.8" x2="132" y2="157.3" xlink:href="#c"/><linearGradient id="ak" x1="170" y1="394" x2="170" y2="518" xlink:href="#c"/><linearGradient id="al" x1="208" y1="427.8" x2="208" y2="518" xlink:href="#c"/><linearGradient id="am" x1="208" y1="406.8" x2="208" y2="427.3" xlink:href="#c"/><linearGradient id="an" x1="208" y1="364.5" x2="208" y2="385" xlink:href="#c"/><linearGradient id="ao" x1="208" y1="385.8" x2="208" y2="406.3" xlink:href="#c"/><linearGradient id="ap" x1="132" y1="427.8" x2="132" y2="518" xlink:href="#c"/><linearGradient id="aq" x1="132" y1="406.8" x2="132" y2="427.3" xlink:href="#c"/><linearGradient id="ar" x1="132" y1="364.5" x2="132" y2="385" xlink:href="#c"/><linearGradient id="as" x1="132" y1="385.8" x2="132" y2="406.3" xlink:href="#c"/><linearGradient id="at" x1="170" y1="25" x2="170" y2="25" xlink:href="#c"/><linearGradient id="au" x1="49" y1="25" x2="291" y2="25" xlink:href="#c"/><linearGradient id="av" x1="170" y1="518" x2="170" y2="518" xlink:href="#c"/><linearGradient id="aw" x1="49" y1="518" x2="291" y2="518" xlink:href="#c"/><linearGradient id="ax" x1="288" y1="37" x2="315" y2="37" xlink:href="#c"/><linearGradient id="ay" x1="288" y1="506" x2="315" y2="506" xlink:href="#c"/><linearGradient id="az" x1="25" y1="37" x2="52" y2="37" xlink:href="#c"/><linearGradient id="ba" x1="25" y1="506" x2="52" y2="506" xlink:href="#c"/><linearGradient id="bb" x1="9" y1="166.05" x2="60" y2="166.05" xlink:href="#c"/><linearGradient id="bc" x1="-202" y1="166.05" x2="-151" y2="166.05" gradientTransform="matrix(-1, 0, 0, 1, 129, 0)" xlink:href="#c"/><linearGradient id="bd" x1="9" y1="159.05" x2="60" y2="159.05" gradientTransform="matrix(1, 0, 0, -1, 0, 537.2)" xlink:href="#c"/><linearGradient id="be" x1="-202" y1="159.05" x2="-151" y2="159.05" gradientTransform="translate(129 537.2) rotate(180)" xlink:href="#c"/><linearGradient id="bf" x1="72.88" y1="272.01" x2="267.12" y2="272.01" gradientTransform="translate(242.13 -40.54) rotate(45)" xlink:href="#c"/><linearGradient id="bg" x1="170" y1="196" x2="170" y2="216" xlink:href="#c"/><linearGradient id="bh" x1="170" y1="328" x2="170" y2="348" xlink:href="#c"/><linearGradient id="bi" x1="171.2" y1="272" x2="202.62" y2="272" xlink:href="#c"/><linearGradient id="bj" x1="137.14" y1="272" x2="170.06" y2="272" xlink:href="#c"/></defs><title>Card_back_Low_res</title><path class="a" d="M317.5,542H22.5a20.06,20.06,0,0,1-20-20V22a20.06,20.06,0,0,1,20-20h295a20.06,20.06,0,0,1,20,20V522A20.06,20.06,0,0,1,317.5,542Z"/><polygon class="b" points="170 156 115.1 210.9 2.5 98.2 2.5 445.8 115.1 333.1 170 388 224.9 333.1 337.5 445.8 337.5 98.2 224.9 210.9 170 156"/><line class="c" x1="26.5" y1="48" x2="26.5" y2="196"/><line class="d" x1="313.5" y1="48" x2="313.5" y2="196"/><line class="e" x1="26.5" y1="495" x2="26.5" y2="347"/><line class="f" x1="313.5" y1="495" x2="313.5" y2="347"/><path class="g" d="M135.3,231h69.4M112,207.7,135.3,231M228,207.7,204.7,231"/><path class="h" d="M204.7,313H135.3m0,0L112,336.3M204.7,313,228,336.3"/><path class="i" d="M98.8,445.8,50.5,494M52,399l78,78"/><path class="j" d="M241.2,445.8,289.5,494M288,399l-78,78"/><path class="k" d="M98.8,97.2,50.5,49M52,144l78-78"/><path class="l" d="M241.2,97.2,289.5,49M288,144,210,66"/><polygon class="m" points="47.4 212.5 2.5 257.4 2.5 245.4 35.4 212.5 2.5 179.6 2.5 167.6 47.4 212.5"/><polygon class="n" points="47.4 331.5 2.5 376.4 2.5 364.4 35.4 331.5 2.5 298.6 2.5 286.6 47.4 331.5"/><polygon class="o" points="337.5 298.6 304.6 331.5 337.5 364.4 337.5 376.4 292.6 331.5 337.5 286.6 337.5 298.6"/><polygon class="p" points="337.5 179.6 304.6 212.5 337.5 245.4 337.5 257.4 292.6 212.5 337.5 167.6 337.5 179.6"/><path class="q" d="M337.5,92.1,225,204.6l-55-55-54.9,55L2.5,92.1v12L108.9,210.8,47.7,272l61.2,61.2L2.5,439.9v12L115.1,339.4l54.9,55,55-55L337.5,451.9v-12L231.1,333.2,292.3,272l-61.2-61.2L337.5,104.1ZM280.3,272l-55.2,55.2-6.1,6.2-48.9,48.9L59.7,272l55.2-55.2,6.2-6.1,48.9-49Z"/><polygon class="r" points="184 25 184 150 170 136 156 150 156 25 184 25"/><polygon class="s" points="213 25 213 115.3 203 105.3 203 25 213 25"/><polygon class="t" points="213 125.8 213 136.3 203 126.3 203 115.8 213 125.8"/><polygon class="u" points="213 168 213 178.5 203 168.5 203 158 213 168"/><polygon class="v" points="213 146.8 213 157.3 203 147.3 203 136.8 213 146.8"/><polygon class="w" points="127 25 127 115.3 137 105.3 137 25 127 25"/><polygon class="x" points="127 125.8 127 136.3 137 126.3 137 115.8 127 125.8"/><polygon class="y" points="127 168 127 178.5 137 168.5 137 158 127 168"/><polygon class="z" points="127 146.8 127 157.3 137 147.3 137 136.8 127 146.8"/><polygon class="aa" points="184 518 184 394 170 408 156 394 156 518 184 518"/><polygon class="ab" points="213 518 213 427.8 203 437.8 203 518 213 518"/><polygon class="ac" points="213 417.3 213 406.8 203 416.8 203 427.3 213 417.3"/><polygon class="ad" points="213 375 213 364.5 203 374.5 203 385 213 375"/><polygon class="ae" points="213 396.3 213 385.8 203 395.8 203 406.3 213 396.3"/><polygon class="af" points="127 518 127 427.8 137 437.8 137 518 127 518"/><polygon class="ag" points="127 417.3 127 406.8 137 416.8 137 427.3 127 417.3"/><polygon class="ah" points="127 375 127 364.5 137 374.5 137 385 127 375"/><polygon class="ai" points="127 396.3 127 385.8 137 395.8 137 406.3 127 396.3"/><line class="aj" x1="50.5" y1="25" x2="289.5" y2="25"/><line class="ak" x1="50.5" y1="518" x2="289.5" y2="518"/><path class="al" d="M310,28.5v17H293v-17h17m5-5H288v27h27v-27Z"/><path class="am" d="M310,497.5v17H293v-17h17m5-5H288v27h27v-27Z"/><path class="an" d="M47,28.5v17H30v-17H47m5-5H25v27H52v-27Z"/><path class="ao" d="M47,497.5v17H30v-17H47m5-5H25v27H52v-27Z"/><polygon class="ap" points="10.5 150.6 10.5 133.5 58.5 181.5 58.5 198.6 10.5 150.6"/><polygon class="aq" points="329.5 150.6 329.5 133.5 281.5 181.5 281.5 198.6 329.5 150.6"/><polygon class="ar" points="10.5 393.6 10.5 410.7 58.5 362.7 58.5 345.6 10.5 393.6"/><polygon class="as" points="329.5 393.6 329.5 410.7 281.5 362.7 281.5 345.6 329.5 393.6"/><rect class="at" x="102.82" y="204.83" width="134.35" height="134.35" transform="translate(-142.55 199.88) rotate(-45)"/><polygon class="au" points="190 216 150 216 170 196 190 216"/><polygon class="av" points="190 328 170 348 150 328 190 328"/><path class="aw" d="M202.62,285.06l-1.14,1a18.2,18.2,0,0,1-11.88,4.36,14.17,14.17,0,0,1-1.6-.08,18.39,18.39,0,0,1,0-36.64,14.17,14.17,0,0,1,1.6-.08,17.63,17.63,0,0,1,11.68,4.26l1.14,1-2,2.28-1.14-1a14.61,14.61,0,0,0-9.72-3.54c-.54,0-1.07,0-1.6.08v30.64c.53.05,1.06.08,1.6.08a15.15,15.15,0,0,0,9.92-3.64l1.14-1Z"/><polygon class="ax" points="168.66 256.6 154.26 287.4 169.2 287.4 169.2 290.4 137.14 290.4 138 288.56 138.54 287.4 152.94 256.6 138 256.6 138 253.6 170.06 253.6 169.2 255.44 168.66 256.6"/><path class="ay" d="M318,0H22A22,22,0,0,0,0,22V522a22,22,0,0,0,22,22H318a22,22,0,0,0,22-22V22A22,22,0,0,0,318,0Zm8,522a8,8,0,0,1-8,8H22a8,8,0,0,1-8-8V22a8,8,0,0,1,8-8H318a8,8,0,0,1,8,8Z"/></svg>