<svg xmlns="http://www.w3.org/2000/svg" xmlns:xlink="http://www.w3.org/1999/xlink" viewBox="0 0 340 544"><defs><linearGradient id="c" x1="2.5" x2="337.5" y1="274" y2="274" gradientTransform="matrix(1 0 0 -1 0 546)" gradientUnits="userSpaceOnUse"><stop offset="0" stop-color="#281e28"/><stop offset=".5" stop-color="#55417d"/><stop offset="1" stop-color="#281e28"/></linearGradient><linearGradient id="a" x1="26.5" x2="26.5" y1="48" y2="196" gradientUnits="userSpaceOnUse"><stop offset="0" stop-color="#caa97a"/><stop offset=".1" stop-color="#d5bb98"/><stop offset=".2" stop-color="#dfccb5"/><stop offset=".3" stop-color="#e6d8c9"/><stop offset=".4" stop-color="#ebe0d6"/><stop offset=".5" stop-color="#ece2da"/><stop offset=".6" stop-color="#ebdfd6"/><stop offset=".7" stop-color="#e7d7c9"/><stop offset=".8" stop-color="#e0c9b5"/><stop offset=".9" stop-color="#d7b598"/><stop offset="1" stop-color="#cb9c73"/><stop offset="1" stop-color="#c58e5e"/></linearGradient><linearGradient xlink:href="#a" id="d" x1="25" x2="28" y1="122" y2="122"/><linearGradient xlink:href="#a" id="e" x1="313.5" x2="313.5"/><linearGradient xlink:href="#a" id="f" x1="312" x2="315" y1="122" y2="122"/><linearGradient xlink:href="#a" id="g" x1="26.5" x2="26.5" y1="-339" y2="-191" gradientTransform="matrix(1 0 0 -1 0 156)"/><linearGradient xlink:href="#a" id="h" x1="25" x2="28" y1="-265" y2="-265" gradientTransform="matrix(1 0 0 -1 0 156)"/><linearGradient xlink:href="#a" id="i" x1="313.5" x2="313.5" y1="-339" y2="-191" gradientTransform="matrix(1 0 0 -1 0 156)"/><linearGradient xlink:href="#a" id="j" x1="312" x2="315" y1="-265" y2="-265" gradientTransform="matrix(1 0 0 -1 0 156)"/><linearGradient xlink:href="#a" id="k" x1="170" x2="170" y1="207.7" y2="231"/><linearGradient xlink:href="#a" id="l" x1="110.5" x2="229.5" y1="219.3" y2="219.3"/><linearGradient xlink:href="#a" id="m" x1="170" x2="170" y1="313" y2="336.3"/><linearGradient xlink:href="#a" id="n" x1="110.5" x2="229.5" y1="324.6" y2="324.6"/><linearGradient xlink:href="#a" id="o" x1="90.3" x2="90.3" y1="399" y2="494"/><linearGradient xlink:href="#a" id="p" x1="49" x2="131.5" y1="446.5" y2="446.5"/><linearGradient xlink:href="#a" id="q" x1="711.3" x2="711.3" y1="399" y2="494" gradientTransform="matrix(-1 0 0 1 961 0)"/><linearGradient xlink:href="#a" id="r" x1="670" x2="752.5" y1="446.5" y2="446.5" gradientTransform="matrix(-1 0 0 1 961 0)"/><linearGradient xlink:href="#a" id="s" x1="90.3" x2="90.3" y1="274" y2="369" gradientTransform="matrix(1 0 0 -1 0 418)"/><linearGradient xlink:href="#a" id="t" x1="49" x2="131.5" y1="321.5" y2="321.5" gradientTransform="matrix(1 0 0 -1 0 418)"/><linearGradient xlink:href="#a" id="u" x1="711.3" x2="711.3" y1="274" y2="369" gradientTransform="rotate(180 480.5 209)"/><linearGradient xlink:href="#a" id="v" x1="670" x2="752.5" y1="321.5" y2="321.5" gradientTransform="rotate(180 480.5 209)"/><linearGradient xlink:href="#a" id="w" x1="24.9" x2="24.9" y1="167.6" y2="257.4"/><linearGradient xlink:href="#a" id="x" x1="24.9" x2="24.9" y1="286.6" y2="376.4"/><linearGradient xlink:href="#a" id="y" x1="315.1" x2="315.1" y1="286.6" y2="376.4"/><linearGradient xlink:href="#a" id="z" x1="315.1" x2="315.1" y1="167.6" y2="257.4"/><linearGradient xlink:href="#a" id="A" x1="170" x2="170" y1="92.1" y2="451.9"/><linearGradient xlink:href="#a" id="B" x1="170" x2="170" y1="25" y2="150"/><linearGradient xlink:href="#a" id="C" x1="208" x2="208" y1="25" y2="115.3"/><linearGradient xlink:href="#a" id="D" x1="208" x2="208" y1="115.8" y2="136.3"/><linearGradient xlink:href="#a" id="E" x1="208" x2="208" y1="158" y2="178.5"/><linearGradient xlink:href="#a" id="F" x1="208" x2="208" y1="136.8" y2="157.3"/><linearGradient xlink:href="#a" id="G" x1="132" x2="132" y1="25" y2="115.3"/><linearGradient xlink:href="#a" id="H" x1="132" x2="132" y1="115.8" y2="136.3"/><linearGradient xlink:href="#a" id="I" x1="132" x2="132" y1="158" y2="178.5"/><linearGradient xlink:href="#a" id="J" x1="132" x2="132" y1="136.8" y2="157.3"/><linearGradient xlink:href="#a" id="K" x1="170" x2="170" y1="394" y2="518"/><linearGradient xlink:href="#a" id="L" x1="208" x2="208" y1="427.8" y2="518"/><linearGradient xlink:href="#a" id="M" x1="208" x2="208" y1="406.8" y2="427.3"/><linearGradient xlink:href="#a" id="N" x1="208" x2="208" y1="364.5" y2="385"/><linearGradient xlink:href="#a" id="O" x1="208" x2="208" y1="385.8" y2="406.3"/><linearGradient xlink:href="#a" id="P" x1="132" x2="132" y1="427.8" y2="518"/><linearGradient xlink:href="#a" id="Q" x1="132" x2="132" y1="406.8" y2="427.3"/><linearGradient xlink:href="#a" id="R" x1="132" x2="132" y1="364.5" y2="385"/><linearGradient xlink:href="#a" id="S" x1="132" x2="132" y1="385.8" y2="406.3"/><linearGradient xlink:href="#a" id="T" x1="170" x2="170" y1="25" y2="25"/><linearGradient xlink:href="#a" id="U" x1="49" x2="291" y1="25" y2="25"/><linearGradient xlink:href="#a" id="V" x1="170" x2="170" y1="518" y2="518"/><linearGradient xlink:href="#a" id="W" x1="49" x2="291" y1="518" y2="518"/><linearGradient xlink:href="#a" id="X" x1="288" x2="315" y1="37" y2="37"/><linearGradient xlink:href="#a" id="Y" x1="288" x2="315" y1="506" y2="506"/><linearGradient xlink:href="#a" id="Z" x1="25" x2="52" y1="37" y2="37"/><linearGradient xlink:href="#a" id="aa" x1="25" x2="52" y1="506" y2="506"/><linearGradient xlink:href="#a" id="ab" x1="9" x2="60" y1="166.1" y2="166.1"/><linearGradient xlink:href="#a" id="ac" x1="-202" x2="-151" y1="166.1" y2="166.1" gradientTransform="matrix(-1 0 0 1 129 0)"/><linearGradient xlink:href="#a" id="ad" x1="9" x2="60" y1="159.1" y2="159.1" gradientTransform="matrix(1 0 0 -1 0 537.2)"/><linearGradient xlink:href="#a" id="ae" x1="-202" x2="-151" y1="159.1" y2="159.1" gradientTransform="rotate(180 64.5 268.6)"/><linearGradient xlink:href="#a" id="af" x1="72.9" x2="267.1" y1="272" y2="272" gradientTransform="rotate(45 170 272)"/><linearGradient xlink:href="#a" id="ag" x1="170" x2="170" y1="196" y2="216"/><linearGradient xlink:href="#a" id="ah" x1="170" x2="170" y1="328" y2="348"/><linearGradient xlink:href="#a" id="ai" x1="171.2" x2="202.6" y1="272" y2="272"/><linearGradient xlink:href="#a" id="aj" x1="137.1" x2="170.1" y1="272" y2="272"/><radialGradient id="b" cx="170" cy="274" r="275.9" gradientTransform="matrix(1 0 0 -1 0 546)" gradientUnits="userSpaceOnUse"><stop offset="0" stop-color="#2d468c"/><stop offset="1" stop-color="#282d3c"/></radialGradient></defs><path fill="url(#b)" d="M317.5 542h-295a20 20 0 0 1-20-20V22a20 20 0 0 1 20-20h295a20 20 0 0 1 20 20v500a20 20 0 0 1-20 20Z"/><path fill="url(#c)" d="m170 156-54.9 54.9L2.5 98.2v347.6l112.6-112.7L170 388l54.9-54.9 112.6 112.7V98.2L224.9 210.9 170 156z"/><path fill="url(#a)" stroke="url(#d)" stroke-linecap="square" stroke-miterlimit="10" stroke-width="3" d="M26.5 48v148"/><path fill="url(#e)" stroke="url(#f)" stroke-linecap="square" stroke-miterlimit="10" stroke-width="3" d="M313.5 48v148"/><path fill="url(#g)" stroke="url(#h)" stroke-linecap="square" stroke-miterlimit="10" stroke-width="3" d="M26.5 495V347"/><path fill="url(#i)" stroke="url(#j)" stroke-linecap="square" stroke-miterlimit="10" stroke-width="3" d="M313.5 495V347"/><path fill="url(#k)" stroke="url(#l)" stroke-linecap="round" stroke-miterlimit="10" stroke-width="3" d="M135.3 231h69.4M112 207.7l23.3 23.3m92.7-23.3L204.7 231"/><path fill="url(#m)" stroke="url(#n)" stroke-linecap="round" stroke-miterlimit="10" stroke-width="3" d="M204.7 313h-69.4m0 0L112 336.3m92.7-23.3 23.3 23.3"/><path fill="url(#o)" stroke="url(#p)" stroke-linecap="round" stroke-linejoin="round" stroke-width="3" d="M98.8 445.8 50.5 494m1.5-95 78 78"/><path fill="url(#q)" stroke="url(#r)" stroke-linecap="round" stroke-linejoin="round" stroke-width="3" d="m241.2 445.8 48.3 48.2m-1.5-95-78 78"/><path fill="url(#s)" stroke="url(#t)" stroke-linecap="round" stroke-linejoin="round" stroke-width="3" d="M98.8 97.2 50.5 49m1.5 95 78-78"/><path fill="url(#u)" stroke="url(#v)" stroke-linecap="round" stroke-linejoin="round" stroke-width="3" d="M241.2 97.2 289.5 49m-1.5 95-78-78"/><path fill="url(#w)" d="M47.4 212.5 2.5 257.4v-12l32.9-32.9-32.9-32.9v-12l44.9 44.9z"/><path fill="url(#x)" d="M47.4 331.5 2.5 376.4v-12l32.9-32.9-32.9-32.9v-12l44.9 44.9z"/><path fill="url(#y)" d="m337.5 298.6-32.9 32.9 32.9 32.9v12l-44.9-44.9 44.9-44.9v12z"/><path fill="url(#z)" d="m337.5 179.6-32.9 32.9 32.9 32.9v12l-44.9-44.9 44.9-44.9v12z"/><path fill="url(#A)" d="M337.5 92.1 225 204.6l-55-55-54.9 55L2.5 92.1v12l106.4 106.7L47.7 272l61.2 61.2L2.5 439.9v12l112.6-112.5 54.9 55 55-55 112.5 112.5v-12L231.1 333.2l61.2-61.2-61.2-61.2 106.4-106.7ZM280.3 272l-55.2 55.2-6.1 6.2-48.9 48.9L59.7 272l55.2-55.2 6.2-6.1 48.9-49Z"/><path fill="url(#B)" d="M184 25v125l-14-14-14 14V25h28z"/><path fill="url(#C)" d="M213 25v90.3l-10-10V25h10z"/><path fill="url(#D)" d="M213 125.8v10.5l-10-10v-10.5l10 10z"/><path fill="url(#E)" d="M213 168v10.5l-10-10V158l10 10z"/><path fill="url(#F)" d="M213 146.8v10.5l-10-10v-10.5l10 10z"/><path fill="url(#G)" d="M127 25v90.3l10-10V25h-10z"/><path fill="url(#H)" d="M127 125.8v10.5l10-10v-10.5l-10 10z"/><path fill="url(#I)" d="M127 168v10.5l10-10V158l-10 10z"/><path fill="url(#J)" d="M127 146.8v10.5l10-10v-10.5l-10 10z"/><path fill="url(#K)" d="M184 518V394l-14 14-14-14v124h28z"/><path fill="url(#L)" d="M213 518v-90.2l-10 10V518h10z"/><path fill="url(#M)" d="M213 417.3v-10.5l-10 10v10.5l10-10z"/><path fill="url(#N)" d="M213 375v-10.5l-10 10V385l10-10z"/><path fill="url(#O)" d="M213 396.3v-10.5l-10 10v10.5l10-10z"/><path fill="url(#P)" d="M127 518v-90.2l10 10V518h-10z"/><path fill="url(#Q)" d="M127 417.3v-10.5l10 10v10.5l-10-10z"/><path fill="url(#R)" d="M127 375v-10.5l10 10V385l-10-10z"/><path fill="url(#S)" d="M127 396.3v-10.5l10 10v10.5l-10-10z"/><path fill="url(#T)" stroke="url(#U)" stroke-linecap="square" stroke-miterlimit="10" stroke-width="3" d="M50.5 25h239"/><path fill="url(#V)" stroke="url(#W)" stroke-linecap="square" stroke-miterlimit="10" stroke-width="3" d="M50.5 518h239"/><path fill="url(#X)" d="M310 28.5v17h-17v-17h17m5-5h-27v27h27v-27Z"/><path fill="url(#Y)" d="M310 497.5v17h-17v-17h17m5-5h-27v27h27v-27Z"/><path fill="url(#Z)" d="M47 28.5v17H30v-17h17m5-5H25v27h27v-27Z"/><path fill="url(#aa)" d="M47 497.5v17H30v-17h17m5-5H25v27h27v-27Z"/><path fill="none" stroke="url(#ab)" stroke-miterlimit="10" stroke-width="3" d="M10.5 150.6v-17.1l48 48v17.1l-48-48z"/><path fill="none" stroke="url(#ac)" stroke-miterlimit="10" stroke-width="3" d="M329.5 150.6v-17.1l-48 48v17.1l48-48z"/><path fill="none" stroke="url(#ad)" stroke-miterlimit="10" stroke-width="3" d="M10.5 393.6v17.1l48-48v-17.1l-48 48z"/><path fill="none" stroke="url(#ae)" stroke-miterlimit="10" stroke-width="3" d="M329.5 393.6v17.1l-48-48v-17.1l48 48z"/><path fill="none" stroke="url(#af)" stroke-miterlimit="10" stroke-width="3" d="M102.8 204.8h134.3v134.3H102.8z" transform="rotate(-45 170 272)"/><path fill="url(#ag)" d="M190 216h-40l20-20 20 20z"/><path fill="url(#ah)" d="m190 328-20 20-20-20h40z"/><path fill="url(#ai)" d="m202.6 285-1.1 1a18.2 18.2 0 0 1-11.9 4.4 14.2 14.2 0 0 1-1.6 0 18.4 18.4 0 0 1 0-36.7 14.2 14.2 0 0 1 1.6 0 17.6 17.6 0 0 1 11.7 4.2l1.1 1-2 2.3-1.1-1a14.6 14.6 0 0 0-9.7-3.6l-1.6.1v30.6l1.6.1a15.2 15.2 0 0 0 9.9-3.6l1.1-1Z"/><path fill="url(#aj)" d="m168.7 256.6-14.4 30.8h14.9v3h-32.1l.9-1.8.5-1.2 14.4-30.8H138v-3h32.1l-.9 1.8-.5 1.2z"/><path fill="#fff" d="M318 0H22A22 22 0 0 0 0 22v500a22 22 0 0 0 22 22h296a22 22 0 0 0 22-22V22a22 22 0 0 0-22-22Zm8 522a8 8 0 0 1-8 8H22a8 8 0 0 1-8-8V22a8 8 0 0 1 8-8h296a8 8 0 0 1 8 8Z"/></svg>