<svg xmlns="http://www.w3.org/2000/svg" xmlns:xlink="http://www.w3.org/1999/xlink" viewBox="0 0 925 281"><defs><linearGradient id="a" x1="229.8" x2="695.3" y1="-108.8" y2="356.8" gradientUnits="userSpaceOnUse"><stop offset="0" stop-color="#caa97a"/><stop offset=".1" stop-color="#d5bb98"/><stop offset=".2" stop-color="#dfccb5"/><stop offset=".3" stop-color="#e6d8c9"/><stop offset=".4" stop-color="#ebe0d6"/><stop offset=".5" stop-color="#ece2da"/><stop offset=".6" stop-color="#ebdfd6"/><stop offset=".7" stop-color="#e7d7c9"/><stop offset=".8" stop-color="#e0c9b5"/><stop offset=".9" stop-color="#d7b598"/><stop offset="1" stop-color="#cb9c73"/><stop offset="1" stop-color="#c58e5e"/></linearGradient><linearGradient xlink:href="#a" id="b" x1="-13.2" x2="44.1" y1="27.1" y2="84.5"/><linearGradient xlink:href="#a" id="c" x1="-2.5" x2="49.5" y1="35.5" y2="87.5"/><linearGradient xlink:href="#a" id="d" x1="7.3" x2="55.8" y1="40.8" y2="89.3"/><linearGradient xlink:href="#a" id="e" x1="26" x2="67" y1="52" y2="93"/><linearGradient xlink:href="#a" id="f" x1="36" x2="73" y1="58" y2="95"/><linearGradient xlink:href="#a" id="g" x1="230.8" x2="694.3" y1="15.3" y2="478.8"/><linearGradient xlink:href="#a" id="h" x1="230.8" x2="694.3" y1="26.3" y2="489.8"/><linearGradient xlink:href="#a" id="i" x1="230.8" x2="694.3" y1="37.3" y2="500.8"/><linearGradient xlink:href="#a" id="j" x1="230.8" x2="694.3" y1="48.3" y2="511.8"/><linearGradient xlink:href="#a" id="k" x1="880.9" x2="938.1" y1="27.1" y2="84.5"/><linearGradient xlink:href="#a" id="l" x1="875.5" x2="927.5" y1="35.5" y2="87.5"/><linearGradient xlink:href="#a" id="m" x1="869.3" x2="917.8" y1="40.8" y2="89.3"/><linearGradient xlink:href="#a" id="n" x1="858" x2="899" y1="52" y2="93"/><linearGradient xlink:href="#a" id="o" x1="852" x2="889" y1="58" y2="95"/><linearGradient xlink:href="#a" id="p" x1="208.9" x2="716.1" y1="-75.9" y2="431.4"/></defs><path fill="url(#a)" d="M837.5 174h-750v-47H0v-6h93.5v47h738v-47H925v6h-87.5v47z"/><path fill="url(#b)" d="M14 0h3v111.6h-3z"/><path fill="url(#c)" d="M22 11h3v101h-3z"/><path fill="url(#d)" d="M30 18h3v94h-3z"/><path fill="url(#e)" d="M45 33h3v79h-3z"/><path fill="url(#f)" d="M53 41h3v71h-3z"/><path fill="url(#g)" d="M0 246h925v2H0z"/><path fill="url(#h)" d="M0 257h925v2H0z"/><path fill="url(#i)" d="M0 268h925v2H0z"/><path fill="url(#j)" d="M0 279h925v2H0z"/><path fill="url(#k)" d="M908 0h3v111.6h-3z"/><path fill="url(#l)" d="M900 11h3v101h-3z"/><path fill="url(#m)" d="M892 18h3v94h-3z"/><path fill="url(#n)" d="M877 33h3v79h-3z"/><path fill="url(#o)" d="M869 41h3v71h-3z"/><path fill="url(#p)" d="M844 133v47H81v-47H0v6h14v97.5h897V139h14v-6Zm-114 53h120v-47h19v56.5H730Zm-27 0h24v12.5h145V139h5v64.5H703Zm0 20.5h177V139h12v78.5H703Zm0 14h192V139h5v86.5H703ZM225 186h475v17.5H225Zm0 20.5h475v4.5H225Zm0 6.5h475v4.5H225ZM56 139h19v47h120v9.5H56Zm-8 0h5v59.5h145V186h24v17.5H48Zm-15 0h12v67.5h177v11H33Zm-8 0h5v81.5h192v5H25Zm883 94.5H17V139h5v89.5h203v-8h475v8h203V139h5Z"/></svg>