<svg xmlns="http://www.w3.org/2000/svg" xmlns:xlink="http://www.w3.org/1999/xlink" viewBox="0 0 340 544"><defs><style>.a{fill:url(#a);}.b{fill:url(#b);}.ay,.az,.c,.d,.e,.f{stroke-linecap:square;}.ar,.as,.at,.au,.ay,.az,.c,.d,.e,.f,.k,.l{stroke-miterlimit:10;}.ar,.as,.at,.au,.av,.ay,.az,.c,.d,.e,.f,.g,.h,.i,.j,.k,.l,.m,.n,.o,.p{stroke-width:3px;}.c{fill:url(#c);stroke:url(#d);}.d{fill:url(#e);stroke:url(#f);}.e{fill:url(#g);stroke:url(#h);}.f{fill:url(#i);stroke:url(#j);}.g,.h,.i,.j,.k,.l,.m,.n,.o,.p{stroke-linecap:round;}.g,.h,.i,.j,.m,.n,.o,.p{stroke-linejoin:round;}.g{fill:url(#k);stroke:url(#l);}.h{fill:url(#m);stroke:url(#n);}.i{fill:url(#o);stroke:url(#p);}.j{fill:url(#q);stroke:url(#r);}.k{fill:url(#s);stroke:url(#t);}.l{fill:url(#u);stroke:url(#v);}.m{fill:url(#w);stroke:url(#x);}.n{fill:url(#y);stroke:url(#z);}.o{fill:url(#aa);stroke:url(#ab);}.p{fill:url(#ac);stroke:url(#ad);}.q{fill:url(#ae);}.r{fill:url(#af);}.s{fill:url(#ag);}.t{fill:url(#ah);}.u{fill:url(#ai);}.v{fill:url(#aj);}.w{fill:url(#ak);}.x{fill:url(#al);}.y{fill:url(#am);}.z{fill:url(#an);}.aa{fill:url(#ao);}.ab{fill:url(#ap);}.ac{fill:url(#aq);}.ad{fill:url(#ar);}.ae{fill:url(#as);}.af{fill:url(#at);}.ag{fill:url(#au);}.ah{fill:url(#av);}.ai{fill:url(#aw);}.aj{fill:url(#ax);}.ak{fill:url(#ay);}.al{fill:url(#az);}.am{fill:url(#ba);}.an{fill:url(#bb);}.ao{fill:url(#bc);}.ap{fill:url(#bd);}.aq{fill:url(#be);}.ar,.as,.at,.au,.av{fill:none;}.ar{stroke:url(#bf);}.as{stroke:url(#bg);}.at{stroke:url(#bh);}.au{stroke:url(#bi);}.av{stroke-miterlimit:10;stroke:url(#bj);}.aw{fill:url(#bk);}.ax{fill:url(#bl);}.ay{fill:url(#bm);stroke:url(#bn);}.az{fill:url(#bo);stroke:url(#bp);}.ba{fill:url(#bq);}.bb{fill:url(#br);}.bc{fill:#fff;}</style><radialGradient id="a" cx="170" cy="274" r="275.91" gradientTransform="matrix(1, 0, 0, -1, 0, 546)" gradientUnits="userSpaceOnUse"><stop offset="0" stop-color="#2d468c"/><stop offset="1" stop-color="#282d3c"/></radialGradient><linearGradient id="b" x1="2.5" y1="274" x2="337.5" y2="274" gradientTransform="matrix(1, 0, 0, -1, 0, 546)" gradientUnits="userSpaceOnUse"><stop offset="0" stop-color="#281e28"/><stop offset="0.5" stop-color="#55417d"/><stop offset="1" stop-color="#281e28"/></linearGradient><linearGradient id="c" x1="317.5" y1="50" x2="317.5" y2="193" gradientUnits="userSpaceOnUse"><stop offset="0" stop-color="#caa97a"/><stop offset="0.09" stop-color="#d5bb98"/><stop offset="0.19" stop-color="#dfccb5"/><stop offset="0.3" stop-color="#e6d8c9"/><stop offset="0.4" stop-color="#ebe0d6"/><stop offset="0.5" stop-color="#ece2da"/><stop offset="0.59" stop-color="#ebdfd6"/><stop offset="0.68" stop-color="#e7d7c9"/><stop offset="0.77" stop-color="#e0c9b5"/><stop offset="0.86" stop-color="#d7b598"/><stop offset="0.96" stop-color="#cb9c73"/><stop offset="1" stop-color="#c58e5e"/></linearGradient><linearGradient id="d" x1="316" y1="121.5" x2="319" y2="121.5" xlink:href="#c"/><linearGradient id="e" x1="317.5" y1="351" x2="317.5" y2="494" xlink:href="#c"/><linearGradient id="f" x1="316" y1="422.5" x2="319" y2="422.5" xlink:href="#c"/><linearGradient id="g" x1="22.5" y1="50" x2="22.5" y2="193" xlink:href="#c"/><linearGradient id="h" x1="21" y1="121.5" x2="24" y2="121.5" xlink:href="#c"/><linearGradient id="i" x1="22.5" y1="351" x2="22.5" y2="494" xlink:href="#c"/><linearGradient id="j" x1="21" y1="422.5" x2="24" y2="422.5" xlink:href="#c"/><linearGradient id="k" x1="78.25" y1="337" x2="78.25" y2="522" xlink:href="#c"/><linearGradient id="l" x1="8.5" y1="429.5" x2="148" y2="429.5" xlink:href="#c"/><linearGradient id="m" x1="91.25" y1="337" x2="91.25" y2="522" gradientTransform="matrix(-1, 0, 0, 1, 353, 0)" xlink:href="#c"/><linearGradient id="n" x1="21.5" y1="429.5" x2="161" y2="429.5" gradientTransform="matrix(-1, 0, 0, 1, 353, 0)" xlink:href="#c"/><linearGradient id="o" x1="78.25" y1="857" x2="78.25" y2="1042" gradientTransform="matrix(1, 0, 0, -1, 0, 1064)" xlink:href="#c"/><linearGradient id="p" x1="8.5" y1="949.5" x2="148" y2="949.5" gradientTransform="matrix(1, 0, 0, -1, 0, 1064)" xlink:href="#c"/><linearGradient id="q" x1="91.25" y1="857" x2="91.25" y2="1042" gradientTransform="translate(353 1064) rotate(180)" xlink:href="#c"/><linearGradient id="r" x1="21.5" y1="949.5" x2="161" y2="949.5" gradientTransform="translate(353 1064) rotate(180)" xlink:href="#c"/><linearGradient id="s" x1="170" y1="207.7" x2="170" y2="231" xlink:href="#c"/><linearGradient id="t" x1="110.5" y1="219.35" x2="229.5" y2="219.35" xlink:href="#c"/><linearGradient id="u" x1="170" y1="313" x2="170" y2="336.3" xlink:href="#c"/><linearGradient id="v" x1="110.5" y1="324.65" x2="229.5" y2="324.65" xlink:href="#c"/><linearGradient id="w" x1="26.25" y1="919" x2="26.25" y2="1042" gradientTransform="translate(296 1064) rotate(180)" xlink:href="#c"/><linearGradient id="x" x1="-23" y1="980.5" x2="75.5" y2="980.5" gradientTransform="translate(296 1064) rotate(180)" xlink:href="#c"/><linearGradient id="y" x1="70.25" y1="399" x2="70.25" y2="522" xlink:href="#c"/><linearGradient id="z" x1="21" y1="460.5" x2="119.5" y2="460.5" xlink:href="#c"/><linearGradient id="aa" x1="26.25" y1="399" x2="26.25" y2="522" gradientTransform="matrix(-1, 0, 0, 1, 296, 0)" xlink:href="#c"/><linearGradient id="ab" x1="-23" y1="460.5" x2="75.5" y2="460.5" gradientTransform="matrix(-1, 0, 0, 1, 296, 0)" xlink:href="#c"/><linearGradient id="ac" x1="70.25" y1="919" x2="70.25" y2="1042" gradientTransform="matrix(1, 0, 0, -1, 0, 1064)" xlink:href="#c"/><linearGradient id="ad" x1="21" y1="980.5" x2="119.5" y2="980.5" gradientTransform="matrix(1, 0, 0, -1, 0, 1064)" xlink:href="#c"/><linearGradient id="ae" x1="24.95" y1="167.6" x2="24.95" y2="257.4" xlink:href="#c"/><linearGradient id="af" x1="24.95" y1="286.6" x2="24.95" y2="376.4" xlink:href="#c"/><linearGradient id="ag" x1="315.05" y1="286.6" x2="315.05" y2="376.4" xlink:href="#c"/><linearGradient id="ah" x1="315.05" y1="167.6" x2="315.05" y2="257.4" xlink:href="#c"/><linearGradient id="ai" x1="170" y1="92.1" x2="170" y2="451.9" xlink:href="#c"/><linearGradient id="aj" x1="170" y1="21" x2="170" y2="154" xlink:href="#c"/><linearGradient id="ak" x1="208" y1="21" x2="208" y2="111.3" xlink:href="#c"/><linearGradient id="al" x1="208" y1="107.8" x2="208" y2="128.3" xlink:href="#c"/><linearGradient id="am" x1="208" y1="142" x2="208" y2="162.5" xlink:href="#c"/><linearGradient id="an" x1="208" y1="124.8" x2="208" y2="145.3" xlink:href="#c"/><linearGradient id="ao" x1="132" y1="21" x2="132" y2="111.3" xlink:href="#c"/><linearGradient id="ap" x1="132" y1="107.8" x2="132" y2="128.3" xlink:href="#c"/><linearGradient id="aq" x1="132" y1="142" x2="132" y2="162.5" xlink:href="#c"/><linearGradient id="ar" x1="132" y1="124.8" x2="132" y2="145.3" xlink:href="#c"/><linearGradient id="as" x1="170" y1="390" x2="170" y2="523" xlink:href="#c"/><linearGradient id="at" x1="208" y1="432.8" x2="208" y2="523" xlink:href="#c"/><linearGradient id="au" x1="208" y1="415.8" x2="208" y2="436.3" xlink:href="#c"/><linearGradient id="av" x1="208" y1="381.5" x2="208" y2="402" xlink:href="#c"/><linearGradient id="aw" x1="208" y1="398.8" x2="208" y2="419.3" xlink:href="#c"/><linearGradient id="ax" x1="132" y1="432.8" x2="132" y2="523" xlink:href="#c"/><linearGradient id="ay" x1="132" y1="415.8" x2="132" y2="436.3" xlink:href="#c"/><linearGradient id="az" x1="132" y1="381.5" x2="132" y2="402" xlink:href="#c"/><linearGradient id="ba" x1="132" y1="398.8" x2="132" y2="419.3" xlink:href="#c"/><linearGradient id="bb" x1="295.5" y1="34" x2="315.5" y2="34" xlink:href="#c"/><linearGradient id="bc" x1="295.5" y1="510" x2="315.5" y2="510" xlink:href="#c"/><linearGradient id="bd" x1="24.5" y1="34" x2="44.5" y2="34" xlink:href="#c"/><linearGradient id="be" x1="24.5" y1="510" x2="44.5" y2="510" xlink:href="#c"/><linearGradient id="bf" x1="9" y1="166.05" x2="60" y2="166.05" xlink:href="#c"/><linearGradient id="bg" x1="-202" y1="166.05" x2="-151" y2="166.05" gradientTransform="matrix(-1, 0, 0, 1, 129, 0)" xlink:href="#c"/><linearGradient id="bh" x1="9" y1="159.05" x2="60" y2="159.05" gradientTransform="matrix(1, 0, 0, -1, 0, 537.2)" xlink:href="#c"/><linearGradient id="bi" x1="-202" y1="159.05" x2="-151" y2="159.05" gradientTransform="translate(129 537.2) rotate(180)" xlink:href="#c"/><linearGradient id="bj" x1="66.38" y1="272.01" x2="273.62" y2="272.01" gradientTransform="translate(242.13 -40.54) rotate(45)" xlink:href="#c"/><linearGradient id="bk" x1="170" y1="193.51" x2="170" y2="215" xlink:href="#c"/><linearGradient id="bl" x1="170" y1="329" x2="170" y2="350.51" xlink:href="#c"/><linearGradient id="bm" x1="170" y1="22" x2="170" y2="22" xlink:href="#c"/><linearGradient id="bn" x1="49" y1="22" x2="291" y2="22" xlink:href="#c"/><linearGradient id="bo" x1="170" y1="522" x2="170" y2="522" xlink:href="#c"/><linearGradient id="bp" x1="49" y1="522" x2="291" y2="522" xlink:href="#c"/><linearGradient id="bq" x1="171.2" y1="272" x2="202.62" y2="272" xlink:href="#c"/><linearGradient id="br" x1="137.14" y1="272" x2="170.06" y2="272" xlink:href="#c"/></defs><title>Card_back_Mid_res</title><path class="a" d="M317.5,542H22.5a20.06,20.06,0,0,1-20-20V22a20.06,20.06,0,0,1,20-20h295a20.06,20.06,0,0,1,20,20V522A20.06,20.06,0,0,1,317.5,542Z"/><polygon class="b" points="170 156 115.1 210.9 2.5 98.2 2.5 445.8 115.1 333.1 170 388 224.9 333.1 337.5 445.8 337.5 98.2 224.9 210.9 170 156"/><line class="c" x1="317.5" y1="50" x2="317.5" y2="193"/><line class="d" x1="317.5" y1="494" x2="317.5" y2="351"/><line class="e" x1="22.5" y1="50" x2="22.5" y2="193"/><line class="f" x1="22.5" y1="494" x2="22.5" y2="351"/><path class="g" d="M146.5,522V384.5m0,0L115,353m0-16v16m0,0L10,458"/><path class="h" d="M193.5,522V384.5m0,0L225,353m0-16v16m0,0L330,458"/><path class="i" d="M146.5,22V159.5m0,0L115,191m0,16V191m0,0L10,86"/><path class="j" d="M193.5,22V159.5m0,0L225,191m0,16V191m0,0L330,86"/><path class="k" d="M135.3,231h69.4M112,207.7,135.3,231M228,207.7,204.7,231"/><path class="l" d="M204.7,313H135.3m0,0L112,336.3M204.7,313,228,336.3"/><path class="m" d="M317.5,50h-28m0-28V50M241.2,98.2,289.5,50M222,22V79m66,66L222,79"/><path class="n" d="M22.5,494h28m0,28V494m48.3-48.2L50.5,494M118,522V465M52,399l66,66"/><path class="o" d="M317.5,494h-28m0,28V494m-48.3-48.2L289.5,494M222,522V465m66-66-66,66"/><path class="p" d="M22.5,50h28m0-28V50M98.8,98.2,50.5,50M118,22V79M52,145l66-66"/><polygon class="q" points="47.4 212.5 2.5 257.4 2.5 245.4 35.4 212.5 2.5 179.6 2.5 167.6 47.4 212.5"/><polygon class="r" points="47.4 331.5 2.5 376.4 2.5 364.4 35.4 331.5 2.5 298.6 2.5 286.6 47.4 331.5"/><polygon class="s" points="337.5 298.6 304.6 331.5 337.5 364.4 337.5 376.4 292.6 331.5 337.5 286.6 337.5 298.6"/><polygon class="t" points="337.5 179.6 304.6 212.5 337.5 245.4 337.5 257.4 292.6 212.5 337.5 167.6 337.5 179.6"/><path class="u" d="M337.5,92.1,225,204.6l-55-55-54.9,55L2.5,92.1v12L108.9,210.8,47.7,272l61.2,61.2L2.5,439.9v12L115.1,339.4l54.9,55,55-55L337.5,451.9v-12L231.1,333.2,292.3,272l-61.2-61.2L337.5,104.1ZM280.3,272l-55.2,55.2-6.1,6.2-48.9,48.9L59.7,272l55.2-55.2,6.2-6.1,48.9-49Z"/><polygon class="v" points="184 21 184 154 170 140 156 154 156 21 184 21"/><polygon class="w" points="213 21 213 111.3 203 101.3 203 21 213 21"/><polygon class="x" points="213 117.8 213 128.3 203 118.3 203 107.8 213 117.8"/><polygon class="y" points="213 152 213 162.5 203 152.5 203 142 213 152"/><polygon class="z" points="213 134.8 213 145.3 203 135.3 203 124.8 213 134.8"/><polygon class="aa" points="127 21 127 111.3 137 101.3 137 21 127 21"/><polygon class="ab" points="127 117.8 127 128.3 137 118.3 137 107.8 127 117.8"/><polygon class="ac" points="127 152 127 162.5 137 152.5 137 142 127 152"/><polygon class="ad" points="127 134.8 127 145.3 137 135.3 137 124.8 127 134.8"/><polygon class="ae" points="184 523 184 390 170 404 156 390 156 523 184 523"/><polygon class="af" points="213 523 213 432.8 203 442.8 203 523 213 523"/><polygon class="ag" points="213 426.3 213 415.8 203 425.8 203 436.3 213 426.3"/><polygon class="ah" points="213 392 213 381.5 203 391.5 203 402 213 392"/><polygon class="ai" points="213 409.3 213 398.8 203 408.8 203 419.3 213 409.3"/><polygon class="aj" points="127 523 127 432.8 137 442.8 137 523 127 523"/><polygon class="ak" points="127 426.3 127 415.8 137 425.8 137 436.3 127 426.3"/><polygon class="al" points="127 392 127 381.5 137 391.5 137 402 127 392"/><polygon class="am" points="127 409.3 127 398.8 137 408.8 137 419.3 127 409.3"/><path class="an" d="M311.5,28V40h-12V28h12m4-4h-20V44h20V24Z"/><path class="ao" d="M311.5,504v12h-12V504h12m4-4h-20v20h20V500Z"/><path class="ap" d="M40.5,28V40h-12V28h12m4-4h-20V44h20V24Z"/><path class="aq" d="M40.5,504v12h-12V504h12m4-4h-20v20h20V500Z"/><polygon class="ar" points="10.5 150.6 10.5 133.5 58.5 181.5 58.5 198.6 10.5 150.6"/><polygon class="as" points="329.5 150.6 329.5 133.5 281.5 181.5 281.5 198.6 329.5 150.6"/><polygon class="at" points="10.5 393.6 10.5 410.7 58.5 362.7 58.5 345.6 10.5 393.6"/><polygon class="au" points="329.5 393.6 329.5 410.7 281.5 362.7 281.5 345.6 329.5 393.6"/><rect class="av" x="98.23" y="200.24" width="143.54" height="143.54" transform="translate(-142.55 199.88) rotate(-45)"/><polygon class="aw" points="191.49 215 148.51 215 170 193.51 191.49 215"/><polygon class="ax" points="191.51 329 170 350.51 148.49 329 191.51 329"/><line class="ay" x1="50.5" y1="22" x2="289.5" y2="22"/><line class="az" x1="50.5" y1="522" x2="289.5" y2="522"/><path class="ba" d="M202.62,285.06l-1.14,1a18.2,18.2,0,0,1-11.88,4.36,14.17,14.17,0,0,1-1.6-.08,18.39,18.39,0,0,1,0-36.64,14.17,14.17,0,0,1,1.6-.08,17.63,17.63,0,0,1,11.68,4.26l1.14,1-2,2.28-1.14-1a14.61,14.61,0,0,0-9.72-3.54c-.54,0-1.07,0-1.6.08v30.64c.53.05,1.06.08,1.6.08a15.15,15.15,0,0,0,9.92-3.64l1.14-1Z"/><polygon class="bb" points="168.66 256.6 154.26 287.4 169.2 287.4 169.2 290.4 137.14 290.4 138 288.56 138.54 287.4 152.94 256.6 138 256.6 138 253.6 170.06 253.6 169.2 255.44 168.66 256.6"/><path class="bc" d="M318,0H22A22,22,0,0,0,0,22V522a22,22,0,0,0,22,22H318a22,22,0,0,0,22-22V22A22,22,0,0,0,318,0Zm8,522a8,8,0,0,1-8,8H22a8,8,0,0,1-8-8V22a8,8,0,0,1,8-8H318a8,8,0,0,1,8,8Z"/></svg>