<svg xmlns="http://www.w3.org/2000/svg" xmlns:xlink="http://www.w3.org/1999/xlink" viewBox="0 0 340 544"><defs><style>.a{fill:url(#a);}.b{fill:url(#b);}.c,.cj,.cm,.cp,.cq,.cu,.d,.dw,.dx,.e{stroke-linecap:square;}.aa,.ab,.ac,.ad,.ae,.af,.ag,.ah,.ai,.aj,.ak,.al,.am,.an,.ao,.ap,.ba,.bl,.bw,.c,.ch,.ci,.cj,.ck,.cl,.cm,.cn,.co,.cp,.cq,.cr,.ct,.cu,.cw,.d,.dv,.dw,.dx,.e,.f,.h,.j,.m,.n,.o,.p,.q,.r,.s,.t,.u,.v,.w,.x,.y,.z{stroke-miterlimit:10;}.c,.cq,.cs,.d,.dw,.dx,.e,.f,.h,.j{stroke-width:1.5px;}.c{fill:url(#c);stroke:url(#d);}.d{fill:url(#e);stroke:url(#f);}.e{fill:url(#g);stroke:url(#h);}.cs,.f,.g,.h,.i,.j,.k,.l,.m,.n{stroke-linecap:round;}.f{fill:url(#i);stroke:url(#j);}.cs,.g,.i,.k,.l{stroke-linejoin:round;}.g{fill:url(#k);stroke:url(#l);}.h{fill:url(#m);stroke:url(#n);}.i{fill:url(#o);stroke:url(#p);}.j{fill:url(#q);stroke:url(#r);}.k{fill:url(#s);stroke:url(#t);}.l{fill:url(#u);stroke:url(#v);}.m{fill:url(#w);stroke:url(#x);}.n{fill:url(#y);stroke:url(#z);}.o{fill:url(#aa);stroke:url(#ab);}.p{fill:url(#ac);stroke:url(#ad);}.q{fill:url(#ae);stroke:url(#af);}.r{fill:url(#ag);stroke:url(#ah);}.s{fill:url(#ai);stroke:url(#aj);}.t{fill:url(#ak);stroke:url(#al);}.u{fill:url(#am);stroke:url(#an);}.v{fill:url(#ao);stroke:url(#ap);}.w{fill:url(#aq);stroke:url(#ar);}.x{fill:url(#as);stroke:url(#at);}.y{fill:url(#au);stroke:url(#av);}.z{fill:url(#aw);stroke:url(#ax);}.aa{fill:url(#ay);stroke:url(#az);}.ab{fill:url(#ba);stroke:url(#bb);}.ac{fill:url(#bc);stroke:url(#bd);}.ad{fill:url(#be);stroke:url(#bf);}.ae{fill:url(#bg);stroke:url(#bh);}.af{fill:url(#bi);stroke:url(#bj);}.ag{fill:url(#bk);stroke:url(#bl);}.ah{fill:url(#bm);stroke:url(#bn);}.ai{fill:url(#bo);stroke:url(#bp);}.aj{fill:url(#bq);stroke:url(#br);}.ak{fill:url(#bs);stroke:url(#bt);}.al,.am,.an,.ao,.ch,.ci,.ck,.cl,.cn,.co,.cr,.ct,.cv{fill:none;}.al,.am,.an,.ao{stroke-width:3px;}.al{stroke:url(#bu);}.am{stroke:url(#bv);}.an{stroke:url(#bw);}.ao{stroke:url(#bx);}.ap{fill:url(#by);stroke:url(#bz);}.aq{fill:url(#ca);}.ar{fill:url(#cb);}.as{fill:url(#cc);}.at{fill:url(#cd);}.au{fill:url(#ce);}.av{fill:url(#cf);}.aw{fill:url(#cg);}.ax{fill:url(#ch);}.ay{fill:url(#ci);}.az{fill:url(#cj);}.ba{fill:url(#ck);stroke:url(#cl);}.bb{fill:url(#cm);}.bc{fill:url(#cn);}.bd{fill:url(#co);}.be{fill:url(#cp);}.bf{fill:url(#cq);}.bg{fill:url(#cr);}.bh{fill:url(#cs);}.bi{fill:url(#ct);}.bj{fill:url(#cu);}.bk{fill:url(#cv);}.bl{fill:url(#cw);stroke:url(#cx);}.bm{fill:url(#cy);}.bn{fill:url(#cz);}.bo{fill:url(#da);}.bp{fill:url(#db);}.bq{fill:url(#dc);}.br{fill:url(#dd);}.bs{fill:url(#de);}.bt{fill:url(#df);}.bu{fill:url(#dg);}.bv{fill:url(#dh);}.bw{fill:url(#di);stroke:url(#dj);}.bx{fill:url(#dk);}.by{fill:url(#dl);}.bz{fill:url(#dm);}.ca{fill:url(#dn);}.cb{fill:url(#do);}.cc{fill:url(#dp);}.cd{fill:url(#dq);}.ce{fill:url(#dr);}.cf{fill:url(#ds);}.cg{fill:url(#dt);}.ch{stroke:url(#du);}.ci{stroke:url(#dv);}.cj{fill:url(#dw);stroke:url(#dx);}.ck{stroke:url(#dy);}.cl{stroke:url(#dz);}.cm{fill:url(#ea);stroke:url(#eb);}.cn{stroke:url(#ec);}.co{stroke:url(#ed);}.cp{fill:url(#ee);stroke:url(#ef);}.cq{fill:url(#eg);stroke:url(#eh);}.cr{stroke:url(#ei);}.cs{fill:url(#ej);stroke:url(#ek);}.ct{stroke:url(#el);}.cu{fill:url(#em);stroke:url(#en);}.cv{stroke-miterlimit:10;stroke:url(#eo);}.cw{fill:url(#ep);stroke:url(#eq);}.cx{fill:url(#er);}.cy{fill:url(#es);}.cz{fill:url(#et);}.da{fill:url(#eu);}.db{fill:url(#ev);}.dc{fill:url(#ew);}.dd{fill:url(#ex);}.de{fill:url(#ey);}.df{fill:url(#ez);}.dg{fill:url(#fa);}.dh{fill:url(#fb);}.di{fill:url(#fc);}.dj{fill:url(#fd);}.dk{fill:url(#fe);}.dl{fill:url(#ff);}.dm{fill:url(#fg);}.dn{fill:url(#fh);}.do{fill:url(#fi);}.dp{fill:url(#fj);}.dq{fill:url(#fk);}.dr{fill:url(#fl);}.ds{fill:url(#fm);}.dt{fill:url(#fn);}.du{fill:url(#fo);}.dv{fill:url(#fp);stroke:url(#fq);}.dw{fill:url(#fr);stroke:url(#fs);}.dx{fill:url(#ft);stroke:url(#fu);}.dy{fill:url(#fv);}.dz{fill:url(#fw);}.ea{fill:#fff;}</style><radialGradient id="a" cx="169.98" cy="274" r="275.91" gradientTransform="matrix(1, 0, 0, -1, 0, 546)" gradientUnits="userSpaceOnUse"><stop offset="0" stop-color="#2d468c"/><stop offset="1" stop-color="#282d3c"/></radialGradient><linearGradient id="b" x1="2.48" y1="274" x2="337.48" y2="274" gradientTransform="matrix(1, 0, 0, -1, 0, 546)" gradientUnits="userSpaceOnUse"><stop offset="0" stop-color="#281e28"/><stop offset="0.5" stop-color="#55417d"/><stop offset="1" stop-color="#281e28"/></linearGradient><linearGradient id="c" x1="318.5" y1="43" x2="318.5" y2="193" gradientUnits="userSpaceOnUse"><stop offset="0" stop-color="#caa97a"/><stop offset="0.09" stop-color="#d5bb98"/><stop offset="0.19" stop-color="#dfccb5"/><stop offset="0.3" stop-color="#e6d8c9"/><stop offset="0.4" stop-color="#ebe0d6"/><stop offset="0.5" stop-color="#ece2da"/><stop offset="0.59" stop-color="#ebdfd6"/><stop offset="0.68" stop-color="#e7d7c9"/><stop offset="0.77" stop-color="#e0c9b5"/><stop offset="0.86" stop-color="#d7b598"/><stop offset="0.96" stop-color="#cb9c73"/><stop offset="1" stop-color="#c58e5e"/></linearGradient><linearGradient id="d" x1="317.75" y1="118" x2="319.25" y2="118" xlink:href="#c"/><linearGradient id="e" x1="318.5" y1="351" x2="318.5" y2="501" xlink:href="#c"/><linearGradient id="f" x1="317.75" y1="426" x2="319.25" y2="426" xlink:href="#c"/><linearGradient id="g" x1="21.5" y1="43" x2="21.5" y2="193" xlink:href="#c"/><linearGradient id="h" x1="20.75" y1="118" x2="22.25" y2="118" xlink:href="#c"/><linearGradient id="i" x1="71.75" y1="21" x2="71.75" y2="145" xlink:href="#c"/><linearGradient id="j" x1="20.75" y1="83" x2="122.75" y2="83" xlink:href="#c"/><linearGradient id="k" x1="263.75" y1="337" x2="263.75" y2="523" xlink:href="#c"/><linearGradient id="l" x1="189.5" y1="430" x2="338" y2="430" xlink:href="#c"/><linearGradient id="m" x1="268.25" y1="21" x2="268.25" y2="145" xlink:href="#c"/><linearGradient id="n" x1="217.25" y1="83" x2="319.25" y2="83" xlink:href="#c"/><linearGradient id="o" x1="263.75" y1="21" x2="263.75" y2="207" xlink:href="#c"/><linearGradient id="p" x1="189.5" y1="114" x2="338" y2="114" xlink:href="#c"/><linearGradient id="q" x1="268.25" y1="399" x2="268.25" y2="523" xlink:href="#c"/><linearGradient id="r" x1="217.25" y1="461" x2="319.25" y2="461" xlink:href="#c"/><linearGradient id="s" x1="76.25" y1="21" x2="76.25" y2="207" xlink:href="#c"/><linearGradient id="t" x1="2" y1="114" x2="150.5" y2="114" xlink:href="#c"/><linearGradient id="u" x1="76.25" y1="337" x2="76.25" y2="523" xlink:href="#c"/><linearGradient id="v" x1="2" y1="430" x2="150.5" y2="430" xlink:href="#c"/><linearGradient id="w" x1="170" y1="207.7" x2="170" y2="231" xlink:href="#c"/><linearGradient id="x" x1="111.5" y1="219.35" x2="228.5" y2="219.35" xlink:href="#c"/><linearGradient id="y" x1="170" y1="313" x2="170" y2="336.3" xlink:href="#c"/><linearGradient id="z" x1="111.5" y1="324.65" x2="228.5" y2="324.65" xlink:href="#c"/><linearGradient id="aa" x1="24.95" y1="167.6" x2="24.95" y2="257.4" xlink:href="#c"/><linearGradient id="ab" x1="2" y1="212.5" x2="48.11" y2="212.5" xlink:href="#c"/><linearGradient id="ac" x1="24.95" y1="286.6" x2="24.95" y2="376.4" xlink:href="#c"/><linearGradient id="ad" x1="2" y1="331.5" x2="48.11" y2="331.5" xlink:href="#c"/><linearGradient id="ae" x1="315.05" y1="286.6" x2="315.05" y2="376.4" xlink:href="#c"/><linearGradient id="af" x1="291.89" y1="331.5" x2="338" y2="331.5" xlink:href="#c"/><linearGradient id="ag" x1="315.05" y1="167.6" x2="315.05" y2="257.4" xlink:href="#c"/><linearGradient id="ah" x1="291.89" y1="212.5" x2="338" y2="212.5" xlink:href="#c"/><linearGradient id="ai" x1="170" y1="92.1" x2="170" y2="451.9" xlink:href="#c"/><linearGradient id="aj" x1="2" y1="272" x2="338" y2="272" xlink:href="#c"/><linearGradient id="ak" x1="170" y1="21" x2="170" y2="154" xlink:href="#c"/><linearGradient id="al" x1="155.5" y1="87.85" x2="184.5" y2="87.85" xlink:href="#c"/><linearGradient id="am" x1="208" y1="21" x2="208" y2="111.3" xlink:href="#c"/><linearGradient id="an" x1="202.5" y1="66.5" x2="213.5" y2="66.5" xlink:href="#c"/><linearGradient id="ao" x1="208" y1="107.8" x2="208" y2="128.3" xlink:href="#c"/><linearGradient id="ap" x1="202.5" y1="118.05" x2="213.5" y2="118.05" xlink:href="#c"/><linearGradient id="aq" x1="208" y1="142" x2="208" y2="162.5" xlink:href="#c"/><linearGradient id="ar" x1="202.5" y1="152.25" x2="213.5" y2="152.25" xlink:href="#c"/><linearGradient id="as" x1="208" y1="124.8" x2="208" y2="145.3" xlink:href="#c"/><linearGradient id="at" x1="202.5" y1="135.05" x2="213.5" y2="135.05" xlink:href="#c"/><linearGradient id="au" x1="132" y1="21" x2="132" y2="111.3" xlink:href="#c"/><linearGradient id="av" x1="126.5" y1="66.5" x2="137.5" y2="66.5" xlink:href="#c"/><linearGradient id="aw" x1="132" y1="107.8" x2="132" y2="128.3" xlink:href="#c"/><linearGradient id="ax" x1="126.5" y1="118.05" x2="137.5" y2="118.05" xlink:href="#c"/><linearGradient id="ay" x1="132" y1="142" x2="132" y2="162.5" xlink:href="#c"/><linearGradient id="az" x1="126.5" y1="152.25" x2="137.5" y2="152.25" xlink:href="#c"/><linearGradient id="ba" x1="132" y1="124.8" x2="132" y2="145.3" xlink:href="#c"/><linearGradient id="bb" x1="126.5" y1="135.05" x2="137.5" y2="135.05" xlink:href="#c"/><linearGradient id="bc" x1="170" y1="390" x2="170" y2="523" xlink:href="#c"/><linearGradient id="bd" x1="155.5" y1="456.15" x2="184.5" y2="456.15" xlink:href="#c"/><linearGradient id="be" x1="208" y1="432.8" x2="208" y2="523" xlink:href="#c"/><linearGradient id="bf" x1="202.5" y1="477.55" x2="213.5" y2="477.55" xlink:href="#c"/><linearGradient id="bg" x1="208" y1="415.8" x2="208" y2="436.3" xlink:href="#c"/><linearGradient id="bh" x1="202.5" y1="426.05" x2="213.5" y2="426.05" xlink:href="#c"/><linearGradient id="bi" x1="208" y1="381.5" x2="208" y2="402" xlink:href="#c"/><linearGradient id="bj" x1="202.5" y1="391.75" x2="213.5" y2="391.75" xlink:href="#c"/><linearGradient id="bk" x1="208" y1="398.8" x2="208" y2="419.3" xlink:href="#c"/><linearGradient id="bl" x1="202.5" y1="409.05" x2="213.5" y2="409.05" xlink:href="#c"/><linearGradient id="bm" x1="132" y1="432.8" x2="132" y2="523" xlink:href="#c"/><linearGradient id="bn" x1="126.5" y1="477.55" x2="137.5" y2="477.55" xlink:href="#c"/><linearGradient id="bo" x1="132" y1="415.8" x2="132" y2="436.3" xlink:href="#c"/><linearGradient id="bp" x1="126.5" y1="426.05" x2="137.5" y2="426.05" xlink:href="#c"/><linearGradient id="bq" x1="132" y1="381.5" x2="132" y2="402" xlink:href="#c"/><linearGradient id="br" x1="126.5" y1="391.75" x2="137.5" y2="391.75" xlink:href="#c"/><linearGradient id="bs" x1="132" y1="398.8" x2="132" y2="419.3" xlink:href="#c"/><linearGradient id="bt" x1="126.5" y1="409.05" x2="137.5" y2="409.05" xlink:href="#c"/><linearGradient id="bu" x1="302" y1="30" x2="317" y2="30" xlink:href="#c"/><linearGradient id="bv" x1="302" y1="514" x2="317" y2="514" xlink:href="#c"/><linearGradient id="bw" x1="23" y1="30" x2="38" y2="30" xlink:href="#c"/><linearGradient id="bx" x1="23" y1="514" x2="38" y2="514" xlink:href="#c"/><linearGradient id="by" x1="275.75" y1="62" x2="275.75" y2="75.5" xlink:href="#c"/><linearGradient id="bz" x1="268.65" y1="68.75" x2="282.85" y2="68.75" xlink:href="#c"/><linearGradient id="ca" x1="282.5" y1="72" x2="282.5" y2="79" xlink:href="#c"/><linearGradient id="cb" x1="286" y1="63.7" x2="286" y2="69.5" xlink:href="#c"/><linearGradient id="cc" x1="289.5" y1="59.2" x2="289.5" y2="61.5" xlink:href="#c"/><linearGradient id="cd" x1="267.35" y1="79.5" x2="267.35" y2="85.5" xlink:href="#c"/><linearGradient id="ce" x1="273.6" y1="71.5" x2="273.6" y2="86.5" xlink:href="#c"/><linearGradient id="cf" x1="272" y1="224.5" x2="272" y2="231.5" xlink:href="#c"/><linearGradient id="cg" x1="263.1" y1="217" x2="263.1" y2="232" xlink:href="#c"/><linearGradient id="ch" x1="256.85" y1="218" x2="256.85" y2="224" xlink:href="#c"/><linearGradient id="ci" x1="279" y1="242" x2="279" y2="244.3" xlink:href="#c"/><linearGradient id="cj" x1="275.5" y1="234" x2="275.5" y2="239.8" xlink:href="#c"/><linearGradient id="ck" x1="275.75" y1="468.5" x2="275.75" y2="482" xlink:href="#c"/><linearGradient id="cl" x1="268.65" y1="475.25" x2="282.85" y2="475.25" xlink:href="#c"/><linearGradient id="cm" x1="282.5" y1="465" x2="282.5" y2="472" xlink:href="#c"/><linearGradient id="cn" x1="286" y1="474.5" x2="286" y2="480.3" xlink:href="#c"/><linearGradient id="co" x1="289.5" y1="482.5" x2="289.5" y2="484.8" xlink:href="#c"/><linearGradient id="cp" x1="267.35" y1="458.5" x2="267.35" y2="464.5" xlink:href="#c"/><linearGradient id="cq" x1="273.6" y1="457.5" x2="273.6" y2="472.5" xlink:href="#c"/><linearGradient id="cr" x1="272" y1="312.5" x2="272" y2="319.5" xlink:href="#c"/><linearGradient id="cs" x1="263.1" y1="312" x2="263.1" y2="327" xlink:href="#c"/><linearGradient id="ct" x1="256.85" y1="320" x2="256.85" y2="326" xlink:href="#c"/><linearGradient id="cu" x1="279" y1="299.7" x2="279" y2="302" xlink:href="#c"/><linearGradient id="cv" x1="275.5" y1="304.2" x2="275.5" y2="310" xlink:href="#c"/><linearGradient id="cw" x1="64.25" y1="62" x2="64.25" y2="75.5" xlink:href="#c"/><linearGradient id="cx" x1="57.15" y1="68.75" x2="71.35" y2="68.75" xlink:href="#c"/><linearGradient id="cy" x1="57.5" y1="72" x2="57.5" y2="79" xlink:href="#c"/><linearGradient id="cz" x1="54" y1="63.7" x2="54" y2="69.5" xlink:href="#c"/><linearGradient id="da" x1="50.5" y1="59.2" x2="50.5" y2="61.5" xlink:href="#c"/><linearGradient id="db" x1="72.65" y1="79.5" x2="72.65" y2="85.5" xlink:href="#c"/><linearGradient id="dc" x1="66.4" y1="71.5" x2="66.4" y2="86.5" xlink:href="#c"/><linearGradient id="dd" x1="68" y1="224.5" x2="68" y2="231.5" xlink:href="#c"/><linearGradient id="de" x1="76.9" y1="217" x2="76.9" y2="232" xlink:href="#c"/><linearGradient id="df" x1="83.15" y1="218" x2="83.15" y2="224" xlink:href="#c"/><linearGradient id="dg" x1="61" y1="242" x2="61" y2="244.3" xlink:href="#c"/><linearGradient id="dh" x1="64.5" y1="234" x2="64.5" y2="239.8" xlink:href="#c"/><linearGradient id="di" x1="64.25" y1="468.5" x2="64.25" y2="482" xlink:href="#c"/><linearGradient id="dj" x1="57.15" y1="475.25" x2="71.35" y2="475.25" xlink:href="#c"/><linearGradient id="dk" x1="57.5" y1="465" x2="57.5" y2="472" xlink:href="#c"/><linearGradient id="dl" x1="54" y1="474.5" x2="54" y2="480.3" xlink:href="#c"/><linearGradient id="dm" x1="50.5" y1="482.5" x2="50.5" y2="484.8" xlink:href="#c"/><linearGradient id="dn" x1="72.65" y1="458.5" x2="72.65" y2="464.5" xlink:href="#c"/><linearGradient id="do" x1="66.4" y1="457.5" x2="66.4" y2="472.5" xlink:href="#c"/><linearGradient id="dp" x1="68" y1="312.5" x2="68" y2="319.5" xlink:href="#c"/><linearGradient id="dq" x1="76.9" y1="312" x2="76.9" y2="327" xlink:href="#c"/><linearGradient id="dr" x1="83.15" y1="320" x2="83.15" y2="326" xlink:href="#c"/><linearGradient id="ds" x1="61" y1="299.7" x2="61" y2="302" xlink:href="#c"/><linearGradient id="dt" x1="64.5" y1="304.2" x2="64.5" y2="310" xlink:href="#c"/><linearGradient id="du" x1="223.5" y1="58.1" x2="290.5" y2="58.1" xlink:href="#c"/><linearGradient id="dv" x1="281" y1="168.55" x2="324" y2="168.55" xlink:href="#c"/><linearGradient id="dw" x1="325.05" y1="187.6" x2="325.05" y2="237.4" xlink:href="#c"/><linearGradient id="dx" x1="311.89" y1="212.5" x2="338.21" y2="212.5" xlink:href="#c"/><linearGradient id="dy" x1="223.5" y1="485.9" x2="290.5" y2="485.9" xlink:href="#c"/><linearGradient id="dz" x1="281" y1="375.45" x2="324" y2="375.45" xlink:href="#c"/><linearGradient id="ea" x1="325.05" y1="306.6" x2="325.05" y2="356.4" xlink:href="#c"/><linearGradient id="eb" x1="311.89" y1="331.5" x2="338.21" y2="331.5" xlink:href="#c"/><linearGradient id="ec" x1="49.5" y1="58.1" x2="116.5" y2="58.1" xlink:href="#c"/><linearGradient id="ed" x1="16" y1="168.55" x2="59" y2="168.55" xlink:href="#c"/><linearGradient id="ee" x1="14.95" y1="187.6" x2="14.95" y2="237.4" xlink:href="#c"/><linearGradient id="ef" x1="1.79" y1="212.5" x2="28.11" y2="212.5" xlink:href="#c"/><linearGradient id="eg" x1="21.5" y1="351" x2="21.5" y2="501" xlink:href="#c"/><linearGradient id="eh" x1="20.75" y1="426" x2="22.25" y2="426" xlink:href="#c"/><linearGradient id="ei" x1="49.5" y1="485.9" x2="116.5" y2="485.9" xlink:href="#c"/><linearGradient id="ej" x1="71.75" y1="399" x2="71.75" y2="523" xlink:href="#c"/><linearGradient id="ek" x1="20.75" y1="461" x2="122.75" y2="461" xlink:href="#c"/><linearGradient id="el" x1="16" y1="375.45" x2="59" y2="375.45" xlink:href="#c"/><linearGradient id="em" x1="14.95" y1="306.6" x2="14.95" y2="356.4" xlink:href="#c"/><linearGradient id="en" x1="1.79" y1="331.5" x2="28.11" y2="331.5" xlink:href="#c"/><linearGradient id="eo" x1="65.33" y1="272.01" x2="274.77" y2="272.01" gradientTransform="translate(242.15 -40.58) rotate(45)" xlink:href="#c"/><linearGradient id="ep" x1="170" y1="235" x2="170" y2="235" xlink:href="#c"/><linearGradient id="eq" x1="135" y1="235" x2="205" y2="235" xlink:href="#c"/><linearGradient id="er" x1="169.98" y1="197.53" x2="169.98" y2="207.43" gradientTransform="translate(192.96 -60.89) rotate(45)" xlink:href="#c"/><linearGradient id="es" x1="161.25" y1="203" x2="161.25" y2="209.6" xlink:href="#c"/><linearGradient id="et" x1="154.35" y1="206.9" x2="154.35" y2="209.5" xlink:href="#c"/><linearGradient id="eu" x1="185.65" y1="206.9" x2="185.65" y2="209.5" xlink:href="#c"/><linearGradient id="ev" x1="178.75" y1="203" x2="178.75" y2="209.6" xlink:href="#c"/><linearGradient id="ew" x1="169.99" y1="211.57" x2="169.99" y2="221.47" gradientTransform="translate(202.89 -56.78) rotate(45)" xlink:href="#c"/><linearGradient id="ex" x1="161.25" y1="209.4" x2="161.25" y2="216" xlink:href="#c"/><linearGradient id="ey" x1="154.35" y1="209.5" x2="154.35" y2="212.1" xlink:href="#c"/><linearGradient id="ez" x1="185.65" y1="209.5" x2="185.65" y2="212.1" xlink:href="#c"/><linearGradient id="fa" x1="178.75" y1="209.4" x2="178.75" y2="216" xlink:href="#c"/><linearGradient id="fb" x1="146.5" y1="207.5" x2="146.5" y2="211.5" xlink:href="#c"/><linearGradient id="fc" x1="193.5" y1="207.5" x2="193.5" y2="211.5" xlink:href="#c"/><linearGradient id="fd" x1="169.99" y1="336.58" x2="169.99" y2="346.47" gradientTransform="translate(291.28 -20.17) rotate(45)" xlink:href="#c"/><linearGradient id="fe" x1="161.25" y1="334.4" x2="161.25" y2="341" xlink:href="#c"/><linearGradient id="ff" x1="154.35" y1="334.5" x2="154.35" y2="337.1" xlink:href="#c"/><linearGradient id="fg" x1="185.65" y1="334.5" x2="185.65" y2="337.1" xlink:href="#c"/><linearGradient id="fh" x1="178.75" y1="334.4" x2="178.75" y2="341" xlink:href="#c"/><linearGradient id="fi" x1="169.98" y1="322.54" x2="169.98" y2="332.43" gradientTransform="translate(281.35 -24.28) rotate(45)" xlink:href="#c"/><linearGradient id="fj" x1="161.25" y1="328" x2="161.25" y2="334.6" xlink:href="#c"/><linearGradient id="fk" x1="154.35" y1="331.9" x2="154.35" y2="334.5" xlink:href="#c"/><linearGradient id="fl" x1="185.65" y1="331.9" x2="185.65" y2="334.5" xlink:href="#c"/><linearGradient id="fm" x1="178.75" y1="328" x2="178.75" y2="334.6" xlink:href="#c"/><linearGradient id="fn" x1="146.5" y1="332.5" x2="146.5" y2="336.5" xlink:href="#c"/><linearGradient id="fo" x1="193.5" y1="332.5" x2="193.5" y2="336.5" xlink:href="#c"/><linearGradient id="fp" x1="170" y1="309" x2="170" y2="309" xlink:href="#c"/><linearGradient id="fq" x1="135" y1="309" x2="205" y2="309" xlink:href="#c"/><linearGradient id="fr" x1="170" y1="21" x2="170" y2="21" xlink:href="#c"/><linearGradient id="fs" x1="42.75" y1="21" x2="297.25" y2="21" xlink:href="#c"/><linearGradient id="ft" x1="170" y1="523" x2="170" y2="523" xlink:href="#c"/><linearGradient id="fu" x1="42.75" y1="523" x2="297.25" y2="523" xlink:href="#c"/><linearGradient id="fv" x1="171.2" y1="272" x2="202.62" y2="272" xlink:href="#c"/><linearGradient id="fw" x1="137.14" y1="272" x2="170.06" y2="272" xlink:href="#c"/></defs><title>Card_back_High_res</title><path class="a" d="M317.48,542h-295a20.06,20.06,0,0,1-20-20V22a20.06,20.06,0,0,1,20-20h295a20.06,20.06,0,0,1,20,20V522A20.06,20.06,0,0,1,317.48,542Z"/><polygon class="b" points="169.98 156 115.08 210.9 2.48 98.2 2.48 445.8 115.08 333.1 169.98 388 224.88 333.1 337.48 445.8 337.48 98.2 224.88 210.9 169.98 156"/><line class="c" x1="318.5" y1="43" x2="318.5" y2="193"/><line class="d" x1="318.5" y1="501" x2="318.5" y2="351"/><line class="e" x1="21.5" y1="43" x2="21.5" y2="193"/><path class="f" d="M43.5,43h-22m22,0V21m0,22L98.8,98.2M122,75V21m0,54L52,145"/><path class="g" d="M197,387V523m-7-139V523m35-174-35,35m35-25-28,28m28-28V337M337.5,461.6,225,349M337.5,471.6,225,359"/><path class="h" d="M318.5,43h-22m0-22V43M241.3,98.3,296.5,43M218,21V75m70,70L218,75"/><path class="i" d="M197,21V157M190,21V160m0,0,35,35m-28-38,28,28m0,22V185m0,10L337.5,82.4M225,185,337.5,72.4"/><path class="j" d="M296.5,501h22m-22,0v22m0-22-55.3-55.3M218,469v54m0-54,70-70"/><path class="k" d="M143,157V21m7,139V21M115,195l35-35m-35,25,28-28m-28,28v22M2.5,82.4,115,195M2.5,72.4,115,185"/><path class="l" d="M143,523V387m7,136V384m0,0-35-35m28,38-28-28m0-22v22m0-10L2.5,461.6M115,359,2.5,471.6"/><path class="m" d="M135.3,231h69.4M112,207.7,135.3,231M228,207.7,204.7,231"/><path class="n" d="M204.7,313H135.3m0,0L112,336.3M204.7,313,228,336.3"/><polygon class="o" points="47.4 212.5 2.5 257.4 2.5 245.4 35.4 212.5 2.5 179.6 2.5 167.6 47.4 212.5"/><polygon class="p" points="47.4 331.5 2.5 376.4 2.5 364.4 35.4 331.5 2.5 298.6 2.5 286.6 47.4 331.5"/><polygon class="q" points="337.5 298.6 304.6 331.5 337.5 364.4 337.5 376.4 292.6 331.5 337.5 286.6 337.5 298.6"/><polygon class="r" points="337.5 179.6 304.6 212.5 337.5 245.4 337.5 257.4 292.6 212.5 337.5 167.6 337.5 179.6"/><path class="s" d="M337.5,92.1,225,204.6l-55-55-54.9,55L2.5,92.1v12L108.9,210.8,47.7,272l61.2,61.2L2.5,439.9v12L115.1,339.4l54.9,55,55-55L337.5,451.9v-12L231.1,333.2,292.3,272l-61.2-61.2L337.5,104.1ZM280.3,272l-55.2,55.2-6.1,6.2-48.9,48.9L59.7,272l55.2-55.2,6.2-6.1,48.9-49Z"/><polygon class="t" points="184 21 184 154 170 140 156 154 156 21 184 21"/><polygon class="u" points="213 21 213 111.3 203 101.3 203 21 213 21"/><polygon class="v" points="213 117.8 213 128.3 203 118.3 203 107.8 213 117.8"/><polygon class="w" points="213 152 213 162.5 203 152.5 203 142 213 152"/><polygon class="x" points="213 134.8 213 145.3 203 135.3 203 124.8 213 134.8"/><polygon class="y" points="127 21 127 111.3 137 101.3 137 21 127 21"/><polygon class="z" points="127 117.8 127 128.3 137 118.3 137 107.8 127 117.8"/><polygon class="aa" points="127 152 127 162.5 137 152.5 137 142 127 152"/><polygon class="ab" points="127 134.8 127 145.3 137 135.3 137 124.8 127 134.8"/><polygon class="ac" points="184 523 184 390 170 404 156 390 156 523 184 523"/><polygon class="ad" points="213 523 213 432.8 203 442.8 203 523 213 523"/><polygon class="ae" points="213 426.3 213 415.8 203 425.8 203 436.3 213 426.3"/><polygon class="af" points="213 392 213 381.5 203 391.5 203 402 213 392"/><polygon class="ag" points="213 409.3 213 398.8 203 408.8 203 419.3 213 409.3"/><polygon class="ah" points="127 523 127 432.8 137 442.8 137 523 127 523"/><polygon class="ai" points="127 426.3 127 415.8 137 425.8 137 436.3 127 426.3"/><polygon class="aj" points="127 392 127 381.5 137 391.5 137 402 127 392"/><polygon class="ak" points="127 409.3 127 398.8 137 408.8 137 419.3 127 409.3"/><rect class="al" x="303.5" y="24" width="12" height="12"/><rect class="am" x="303.5" y="508" width="12" height="12"/><rect class="an" x="24.5" y="24" width="12" height="12"/><rect class="ao" x="24.5" y="508" width="12" height="12"/><line class="ap" x1="269" y1="62" x2="282.5" y2="75.5"/><rect class="aq" x="279" y="72" width="7" height="7"/><path class="ar" d="M286.1,69.5h-7.6l4.6-4.6a4,4,0,0,1,2.8-1.2h7.6l-4.6,4.6A4,4,0,0,1,286.1,69.5Z"/><polygon class="as" points="290.2 61.5 286.5 61.5 288.8 59.2 292.5 59.2 290.2 61.5"/><polygon class="at" points="268.5 83.2 268.5 79.5 266.2 81.8 266.2 85.5 268.5 83.2"/><path class="au" d="M276.5,79.1V71.5l-4.6,4.6a4,4,0,0,0-1.2,2.8v7.6l4.6-4.6A4,4,0,0,0,276.5,79.1Z"/><rect class="av" x="268.5" y="224.5" width="7" height="7"/><path class="aw" d="M266,224.4V232l-4.6-4.6a4,4,0,0,1-1.2-2.8V217l4.6,4.6A4,4,0,0,1,266,224.4Z"/><polygon class="ax" points="258 220.3 258 224 255.7 221.7 255.7 218 258 220.3"/><polygon class="ay" points="279.7 242 276 242 278.3 244.3 282 244.3 279.7 242"/><path class="az" d="M275.6,234H268l4.6,4.6a4,4,0,0,0,2.8,1.2H283l-4.6-4.6A4,4,0,0,0,275.6,234Z"/><line class="ba" x1="269" y1="482" x2="282.5" y2="468.5"/><rect class="bb" x="279" y="465" width="7" height="7"/><path class="bc" d="M286.1,474.5h-7.6l4.6,4.6a4,4,0,0,0,2.8,1.2h7.6l-4.6-4.6A4,4,0,0,0,286.1,474.5Z"/><polygon class="bd" points="290.2 482.5 286.5 482.5 288.8 484.8 292.5 484.8 290.2 482.5"/><polygon class="be" points="268.5 460.8 268.5 464.5 266.2 462.2 266.2 458.5 268.5 460.8"/><path class="bf" d="M276.5,464.9v7.6l-4.6-4.6a4,4,0,0,1-1.2-2.8v-7.6l4.6,4.6A4,4,0,0,1,276.5,464.9Z"/><rect class="bg" x="268.5" y="312.5" width="7" height="7"/><path class="bh" d="M266,319.6V312l-4.6,4.6a4,4,0,0,0-1.2,2.8V327l4.6-4.6A4,4,0,0,0,266,319.6Z"/><polygon class="bi" points="258 323.7 258 320 255.7 322.3 255.7 326 258 323.7"/><polygon class="bj" points="279.7 302 276 302 278.3 299.7 282 299.7 279.7 302"/><path class="bk" d="M275.6,310H268l4.6-4.6a4,4,0,0,1,2.8-1.2H283l-4.6,4.6A4,4,0,0,1,275.6,310Z"/><line class="bl" x1="71" y1="62" x2="57.5" y2="75.5"/><rect class="bm" x="54" y="72" width="7" height="7"/><path class="bn" d="M53.9,69.5h7.6l-4.6-4.6a4,4,0,0,0-2.8-1.2H46.5l4.6,4.6A4,4,0,0,0,53.9,69.5Z"/><polygon class="bo" points="49.8 61.5 53.5 61.5 51.2 59.2 47.5 59.2 49.8 61.5"/><polygon class="bp" points="71.5 83.2 71.5 79.5 73.8 81.8 73.8 85.5 71.5 83.2"/><path class="bq" d="M63.5,79.1V71.5l4.6,4.6a4,4,0,0,1,1.2,2.8v7.6l-4.6-4.6A4,4,0,0,1,63.5,79.1Z"/><rect class="br" x="64.5" y="224.5" width="7" height="7"/><path class="bs" d="M74,224.4V232l4.6-4.6a4,4,0,0,0,1.2-2.8V217l-4.6,4.6A4,4,0,0,0,74,224.4Z"/><polygon class="bt" points="82 220.3 82 224 84.3 221.7 84.3 218 82 220.3"/><polygon class="bu" points="60.3 242 64 242 61.7 244.3 58 244.3 60.3 242"/><path class="bv" d="M64.4,234H72l-4.6,4.6a4,4,0,0,1-2.8,1.2H57l4.6-4.6A4,4,0,0,1,64.4,234Z"/><line class="bw" x1="71" y1="482" x2="57.5" y2="468.5"/><rect class="bx" x="54" y="465" width="7" height="7"/><path class="by" d="M53.9,474.5h7.6l-4.6,4.6a4,4,0,0,1-2.8,1.2H46.5l4.6-4.6A4,4,0,0,1,53.9,474.5Z"/><polygon class="bz" points="49.8 482.5 53.5 482.5 51.2 484.8 47.5 484.8 49.8 482.5"/><polygon class="ca" points="71.5 460.8 71.5 464.5 73.8 462.2 73.8 458.5 71.5 460.8"/><path class="cb" d="M63.5,464.9v7.6l4.6-4.6a4,4,0,0,0,1.2-2.8v-7.6l-4.6,4.6A4,4,0,0,0,63.5,464.9Z"/><rect class="cc" x="64.5" y="312.5" width="7" height="7"/><path class="cd" d="M74,319.6V312l4.6,4.6a4,4,0,0,1,1.2,2.8V327l-4.6-4.6A4,4,0,0,1,74,319.6Z"/><polygon class="ce" points="82 323.7 82 320 84.3 322.3 84.3 326 82 323.7"/><polygon class="cf" points="60.3 302 64 302 61.7 299.7 58 299.7 60.3 302"/><path class="cg" d="M64.4,310H72l-4.6-4.6a4,4,0,0,0-2.8-1.2H57l4.6,4.6A4,4,0,0,0,64.4,310Z"/><path class="ch" d="M224,27h66V41L242,89,224,71Z"/><polygon class="ci" points="323.5 155.6 323.5 139.5 281.5 181.5 281.5 197.6 323.5 155.6"/><path class="cj" d="M312.6,212.5l24.9-24.9m-24.9,24.9,24.9,24.9"/><path class="ck" d="M224,473l18-18,48,48v14H224Z"/><polygon class="cl" points="323.5 388.4 323.5 404.5 281.5 362.5 281.5 346.4 323.5 388.4"/><path class="cm" d="M337.5,356.4l-24.9-24.9m24.9-24.9-24.9,24.9"/><path class="cn" d="M116,71,98,89,50,41V27h66Z"/><polygon class="co" points="16.5 155.6 16.5 139.5 58.5 181.5 58.5 197.6 16.5 155.6"/><path class="cp" d="M2.5,187.6l24.9,24.9M2.5,237.4l24.9-24.9"/><line class="cq" x1="21.5" y1="501" x2="21.5" y2="351"/><path class="cr" d="M116,517H50V503l48-48,18,18Z"/><path class="cs" d="M21.5,501h22m0,22V501m55.3-55.2L43.5,501M122,523V469M52,399l70,70"/><polygon class="ct" points="16.5 388.4 16.5 404.5 58.5 362.5 58.5 346.4 16.5 388.4"/><path class="cu" d="M27.4,331.5,2.5,356.4m24.9-24.9L2.5,306.6"/><rect class="cv" x="96.5" y="198.46" width="147.1" height="147.1" transform="translate(-142.53 199.91) rotate(-45)"/><line class="cw" x1="135" y1="235" x2="205" y2="235"/><rect class="cx" x="166.48" y="198.98" width="7" height="7" transform="translate(-93.39 179.5) rotate(-45)"/><path class="cy" d="M163.2,204.2l5.4,5.4h-6.5a3.63,3.63,0,0,1-2.8-1.2l-5.4-5.4h6.5A3.63,3.63,0,0,1,163.2,204.2Z"/><polygon class="cz" points="154.7 206.9 157.3 209.5 154 209.5 151.4 206.9 154.7 206.9"/><polygon class="da" points="185.3 206.9 182.7 209.5 186 209.5 188.6 206.9 185.3 206.9"/><path class="db" d="M176.8,204.2l-5.4,5.4h6.5a3.63,3.63,0,0,0,2.8-1.2l5.4-5.4h-6.5A3.63,3.63,0,0,0,176.8,204.2Z"/><rect class="dc" x="166.49" y="213.02" width="7" height="7" transform="translate(-103.32 183.62) rotate(-45)"/><path class="dd" d="M163.2,214.8l5.4-5.4h-6.5a3.63,3.63,0,0,0-2.8,1.2l-5.4,5.4h6.5A3.63,3.63,0,0,0,163.2,214.8Z"/><polygon class="de" points="154.7 212.1 157.3 209.5 154 209.5 151.4 212.1 154.7 212.1"/><polygon class="df" points="185.3 212.1 182.7 209.5 186 209.5 188.6 212.1 185.3 212.1"/><path class="dg" d="M176.8,214.8l-5.4-5.4h6.5a3.63,3.63,0,0,1,2.8,1.2l5.4,5.4h-6.5A3.63,3.63,0,0,1,176.8,214.8Z"/><circle class="dh" cx="146.5" cy="209.5" r="2"/><circle class="di" cx="193.5" cy="209.5" r="2"/><rect class="dj" x="166.49" y="338.03" width="7" height="7" transform="translate(-191.71 220.23) rotate(-45)"/><path class="dk" d="M163.2,339.8l5.4-5.4h-6.5a3.63,3.63,0,0,0-2.8,1.2l-5.4,5.4h6.5A3.63,3.63,0,0,0,163.2,339.8Z"/><polygon class="dl" points="154.7 337.1 157.3 334.5 154 334.5 151.4 337.1 154.7 337.1"/><polygon class="dm" points="185.3 337.1 182.7 334.5 186 334.5 188.6 337.1 185.3 337.1"/><path class="dn" d="M176.8,339.8l-5.4-5.4h6.5a3.63,3.63,0,0,1,2.8,1.2l5.4,5.4h-6.5A3.63,3.63,0,0,1,176.8,339.8Z"/><rect class="do" x="166.48" y="323.99" width="7" height="7" transform="translate(-181.78 216.11) rotate(-45)"/><path class="dp" d="M163.2,329.2l5.4,5.4h-6.5a3.63,3.63,0,0,1-2.8-1.2l-5.4-5.4h6.5A3.63,3.63,0,0,1,163.2,329.2Z"/><polygon class="dq" points="154.7 331.9 157.3 334.5 154 334.5 151.4 331.9 154.7 331.9"/><polygon class="dr" points="185.3 331.9 182.7 334.5 186 334.5 188.6 331.9 185.3 331.9"/><path class="ds" d="M176.8,329.2l-5.4,5.4h6.5a3.63,3.63,0,0,0,2.8-1.2l5.4-5.4h-6.5A3.63,3.63,0,0,0,176.8,329.2Z"/><circle class="dt" cx="146.5" cy="334.5" r="2"/><circle class="du" cx="193.5" cy="334.5" r="2"/><line class="dv" x1="135" y1="309" x2="205" y2="309"/><line class="dw" x1="43.5" y1="21" x2="296.5" y2="21"/><line class="dx" x1="43.5" y1="523" x2="296.5" y2="523"/><path class="dy" d="M202.62,285.06l-1.14,1a18.2,18.2,0,0,1-11.88,4.36,14.17,14.17,0,0,1-1.6-.08,18.39,18.39,0,0,1,0-36.64,14.17,14.17,0,0,1,1.6-.08,17.63,17.63,0,0,1,11.68,4.26l1.14,1-2,2.28-1.14-1a14.61,14.61,0,0,0-9.72-3.54c-.54,0-1.07,0-1.6.08v30.64c.53.05,1.06.08,1.6.08a15.15,15.15,0,0,0,9.92-3.64l1.14-1Z"/><polygon class="dz" points="168.66 256.6 154.26 287.4 169.2 287.4 169.2 290.4 137.14 290.4 138 288.56 138.54 287.4 152.94 256.6 138 256.6 138 253.6 170.06 253.6 169.2 255.44 168.66 256.6"/><path class="ea" d="M318,0H22A22,22,0,0,0,0,22V522a22,22,0,0,0,22,22H318a22,22,0,0,0,22-22V22A22,22,0,0,0,318,0Zm8,522a8,8,0,0,1-8,8H22a8,8,0,0,1-8-8V22a8,8,0,0,1,8-8H318a8,8,0,0,1,8,8Z"/></svg>