<svg xmlns="http://www.w3.org/2000/svg" xmlns:xlink="http://www.w3.org/1999/xlink" viewBox="0 0 1700 544"><defs><linearGradient id="a" x1="50" x2="290" y1="274" y2="274" gradientTransform="matrix(1 0 0 -1 0 546)" gradientUnits="userSpaceOnUse"><stop offset="0" stop-color="#f09819"/><stop offset="1" stop-color="#edde5d"/></linearGradient><linearGradient id="c" x1="850" x2="850" y1="149" y2="399" gradientTransform="matrix(1 0 0 -1 0 546)" gradientUnits="userSpaceOnUse"><stop offset="0" stop-color="#005bea"/><stop offset=".5" stop-color="#00c6fb"/><stop offset="1" stop-color="#005bea"/></linearGradient><linearGradient xlink:href="#c" id="d" x1="802" x2="802" y1="149" y2="399"/><linearGradient xlink:href="#c" id="e" x1="898" x2="898" y1="149" y2="399"/><linearGradient id="f" x1="1080" x2="1300" y1="274" y2="274" gradientTransform="matrix(1 0 0 -1 0 546)" gradientUnits="userSpaceOnUse"><stop offset="0" stop-color="#434343"/><stop offset="1"/></linearGradient><linearGradient id="g" x1="1530" x2="1530" y1="394" y2="154" gradientTransform="matrix(1 0 0 -1 0 546)" gradientUnits="userSpaceOnUse"><stop offset="0" stop-color="#52c234"/><stop offset=".2" stop-color="#4cb02d"/><stop offset=".5" stop-color="#3e801b"/><stop offset="1" stop-color="#283900"/></linearGradient><radialGradient id="b" cx="510" cy="272" r="120" gradientUnits="userSpaceOnUse"><stop offset="0" stop-color="#93291e"/><stop offset="1" stop-color="#ed213a"/></radialGradient><style>.c{fill:#dcdc96}.d{fill:none;stroke:#dcdcdc;stroke-miterlimit:10;stroke-width:4px}.f{fill:#dcb4b4}.j{fill:#96b4dc}.l{fill:#b4b4b4}.n{fill:#96c896}</style></defs><path fill="#fff" d="M1700 22v500a22 22 0 0 1-22 22h-296a22 22 0 0 1-22-22 22 22 0 0 1-22 22h-296a22 22 0 0 1-22-22 22 22 0 0 1-22 22H702a22 22 0 0 1-22-22 22 22 0 0 1-22 22H362a22 22 0 0 1-22-22 22 22 0 0 1-22 22H22a22 22 0 0 1-22-22V22A22 22 0 0 1 22 0h296a22 22 0 0 1 22 22 22 22 0 0 1 22-22h296a22 22 0 0 1 22 22 22 22 0 0 1 22-22h296a22 22 0 0 1 22 22 22 22 0 0 1 22-22h296a22 22 0 0 1 22 22 22 22 0 0 1 22-22h296a22 22 0 0 1 22 22Z"/><path fill="url(#a)" d="M170 184a88 88 0 1 1-88 88 88 88 0 0 1 88-88m0-32a120 120 0 1 0 120 120 120 120 0 0 0-120-120Z"/><path d="M39 30a9 9 0 1 1-9 9 9 9 0 0 1 9-9m0-6a15 15 0 1 0 15 15 15 15 0 0 0-15-15ZM301 496a9 9 0 1 1-9 9 9 9 0 0 1 9-9m0-6a15 15 0 1 0 15 15 15 15 0 0 0-15-15Z" class="c"/><path d="M74 26h160M26 74v300M266 518H106M314 470V170" class="d"/><path fill="url(#b)" d="M630 256v32H526v104h-32V288H390v-32h104V152h32v104h104z"/><path d="M394 36v6h-12v12h-6V42h-12v-6h12V24h6v12h12zM656 502v6h-12v12h-6v-12h-12v-6h12v-12h6v12h12z" class="f"/><path d="M414 26h160M366 74v300M606 518H446M654 470V170" class="d"/><path fill="url(#c)" d="M834.2 147a59.7 59.7 0 0 1 11.1 45.3 105.2 105.2 0 0 1-13.1 28.6c-5.5 10-12.5 19.9-14.3 31.4-3.4 15.8 4.2 31.4 13.8 43.9 6 9.2 12.7 17.7 17.6 27.6 6.5 12.3 4.7 27-1.3 39.2-5.4 11.2-12 22.1-16 34h31.1a692 692 0 0 0 18.3-43c2.7-12 2.2-25.3-4.6-36-8.1-14.4-19.4-27-26.2-42-7.3-16-.8-33.6 8.1-47.6 7.5-14.6 18.5-29 17.4-46.2 1.3-13-6.4-24.5-13.2-35.2Z"/><path fill="url(#d)" d="M786.2 147a59.8 59.8 0 0 1 11.1 45.3 105.2 105.2 0 0 1-13.1 28.6c-5.5 10-12.5 19.9-14.3 31.4-3.4 15.8 4.2 31.4 13.8 43.9 6 9.2 12.7 17.7 17.6 27.6 6.5 12.3 4.7 27-1.3 39.2-5.4 11.2-12 22.1-16 34h31.2c6-12.9 13.2-29.7 18.2-43 2.7-12 2.2-25.3-4.6-36-8.1-14.4-19.4-27-26.2-42-7.3-16-.8-33.6 8.1-47.6 7.5-14.6 18.5-29 17.4-46.2 1.3-13-6.4-24.5-13.2-35.2Z"/><path fill="url(#e)" d="M882.2 147a59.7 59.7 0 0 1 11.1 45.3 105.2 105.2 0 0 1-13.1 28.6c-5.5 10-12.5 19.9-14.3 31.4-3.4 15.8 4.2 31.4 13.8 43.9 6 9.2 12.7 17.7 17.6 27.6 6.5 12.3 4.7 27-1.3 39.2-5.4 11.2-12 22.1-16 34h31.1a692 692 0 0 0 18.3-43c2.7-12 2.2-25.3-4.6-36-8.1-14.4-19.4-27-26.2-42-7.3-16-.8-33.6 8.1-47.6 7.5-14.6 18.5-29 17.4-46.2 1.3-13-6.4-24.5-13.2-35.2Z"/><path d="M706 24a7.2 7.2 0 0 1 1.4 5.4 12.4 12.4 0 0 1-1.6 3.5 12.7 12.7 0 0 0-1.7 3.7 6.6 6.6 0 0 0 1.6 5.3 31 31 0 0 1 2.2 3.3 5.2 5.2 0 0 1-.2 4.7 34.4 34.4 0 0 0-1.9 4.1h5.7l2.2-5.2a5.7 5.7 0 0 0-.5-4.3c-1-1.7-2.4-3.2-3.2-5s0-4 1-5.7c1-1.8 2.2-3.5 2.1-5.6.2-1.5-.8-3-1.6-4.2ZM716 24a7.2 7.2 0 0 1 1.4 5.4 12.4 12.4 0 0 1-1.6 3.5 12.7 12.7 0 0 0-1.7 3.7 6.6 6.6 0 0 0 1.6 5.3 31 31 0 0 1 2.2 3.3 5.2 5.2 0 0 1-.2 4.7 34.4 34.4 0 0 0-1.9 4.1h5.7l2.2-5.2a5.7 5.7 0 0 0-.5-4.3c-1-1.7-2.4-3.2-3.2-5s0-4 1-5.7c1-1.8 2.2-3.5 2.1-5.6.2-1.5-.8-3-1.6-4.2ZM726 24a7.2 7.2 0 0 1 1.4 5.4 12.4 12.4 0 0 1-1.6 3.5 12.7 12.7 0 0 0-1.7 3.7 6.6 6.6 0 0 0 1.6 5.3 31 31 0 0 1 2.2 3.3 5.2 5.2 0 0 1-.2 4.7 34.4 34.4 0 0 0-1.9 4.1h5.7l2.2-5.2a5.7 5.7 0 0 0-.5-4.3c-1-1.7-2.4-3.2-3.2-5s0-4 1-5.7c1-1.8 2.2-3.5 2.1-5.6.2-1.5-.8-3-1.6-4.2ZM968.2 490a7.2 7.2 0 0 1 1.3 5.4 12.4 12.4 0 0 1-1.6 3.5 12.7 12.7 0 0 0-1.7 3.7 6.6 6.6 0 0 0 1.6 5.3 31 31 0 0 1 2.2 3.3 5.2 5.2 0 0 1-.2 4.7 34.4 34.4 0 0 0-1.9 4.1h5.7l2.2-5.2a5.7 5.7 0 0 0-.5-4.3c-1-1.7-2.4-3.2-3.2-5s0-4 1-5.7c1-1.7 2.2-3.5 2.1-5.5.2-1.6-.8-3-1.6-4.2ZM978.2 490a7.2 7.2 0 0 1 1.3 5.4 12.4 12.4 0 0 1-1.6 3.5 12.7 12.7 0 0 0-1.7 3.7 6.6 6.6 0 0 0 1.6 5.3 31 31 0 0 1 2.2 3.3 5.2 5.2 0 0 1-.2 4.7 34.4 34.4 0 0 0-1.9 4.1h5.7l2.2-5.2a5.7 5.7 0 0 0-.5-4.3c-1-1.7-2.4-3.2-3.2-5s0-4 1-5.7c1-1.7 2.2-3.5 2.1-5.5.2-1.6-.8-3-1.6-4.2ZM988.2 490a7.2 7.2 0 0 1 1.3 5.4 12.4 12.4 0 0 1-1.6 3.5 12.7 12.7 0 0 0-1.7 3.7 6.6 6.6 0 0 0 1.6 5.3 31 31 0 0 1 2.2 3.3 5.2 5.2 0 0 1-.2 4.7 34.4 34.4 0 0 0-1.9 4.1h5.7l2.2-5.2a5.7 5.7 0 0 0-.5-4.3c-1-1.7-2.4-3.2-3.2-5s0-4 1-5.7c1-1.7 2.2-3.5 2.1-5.5.2-1.6-.8-3-1.6-4.2Z" class="j"/><path d="M754 26h160M706 74v300M946 518H786M994 470V170" class="d"/><path fill="url(#f)" d="M1268 194v156h-156V194h156m32-32h-220v220h220Z"/><path d="M1068 30v18h-18V30h18m6-6h-30v30h30ZM1330 496v18h-18v-18h18m6-6h-30v30h30Z" class="l"/><path d="M1094 26h160M1046 74v300M1286 518h-160M1334 470V170" class="d"/><path fill="url(#g)" d="m1530 210.8 15.7 31.7 6 12.3 13.5 2 35 5-25.4 24.8-9.7 9.5 2.3 13.5 6 35L1542 328l-12.1-6.4-12.1 6.4-31.4 16.5 6-35 2.4-13.4-9.8-9.5-25.4-24.8 35-5 13.5-2 6-12.3 15.8-31.8m0-58.7-39 79-87.2 12.7 63.1 61.5L1452 392l78-41 78 41-14.9-86.8 63.1-61.5L1569 231Z"/><path d="m1401.9 33 2 4 .8 1.9 2.1.3 4.3.6-3 3-1.6 1.5.4 2 .7 4.4-3.9-2-1.8-1-1.9 1-3.9 2 .8-4.3.3-2.1-1.5-1.5-3.1-3 4.3-.6 2.1-.3 1-1.9 1.9-4m0-9-5.6 11.2L1384 37l9 8.7-2.2 12.3 11-5.8L1413 58l-2-12.3 8.9-8.7-12.4-1.8ZM1658.1 495l2 4 .9 1.8 2 .3 4.4.6-3.1 3-1.5 1.6.3 2 .8 4.4-4-2-1.8-1-1.8 1-4 2 .8-4.4.4-2-1.5-1.5-3.1-3 4.3-.6 2-.3 1-2 2-3.9m0-9-5.6 11.2-12.3 1.8 8.9 8.7-2.1 12.3 11-5.8 11 5.8-2.1-12.3 9-8.7-12.3-1.8-5.6-11.2Z" class="n"/><path d="M1434 26h160M1386 74v300M1626 518h-160M1674 470V170" class="d"/></svg>