<svg xmlns="http://www.w3.org/2000/svg" xmlns:xlink="http://www.w3.org/1999/xlink" viewBox="0 0 1700 544"><defs><style>.a{fill:#fff;}.b{fill:url(#a);}.c{fill:#dcdc96;}.d{fill:none;stroke:#dcdcdc;stroke-miterlimit:10;stroke-width:4px;}.e{fill:url(#b);}.f{fill:#dcb4b4;}.g{fill:url(#c);}.h{fill:url(#d);}.i{fill:url(#e);}.j{fill:#96b4dc;}.k{fill:url(#f);}.l{fill:#b4b4b4;}.m{fill:url(#g);}.n{fill:#96c896;}</style><linearGradient id="a" x1="50" y1="274" x2="290" y2="274" gradientTransform="matrix(1, 0, 0, -1, 0, 546)" gradientUnits="userSpaceOnUse"><stop offset="0" stop-color="#f09819"/><stop offset="1" stop-color="#edde5d"/></linearGradient><radialGradient id="b" cx="510" cy="272" r="120" gradientUnits="userSpaceOnUse"><stop offset="0" stop-color="#93291e"/><stop offset="1" stop-color="#ed213a"/></radialGradient><linearGradient id="c" x1="850" y1="149.03" x2="850" y2="399" gradientTransform="matrix(1, 0, 0, -1, 0, 546)" gradientUnits="userSpaceOnUse"><stop offset="0" stop-color="#005bea"/><stop offset="0.53" stop-color="#00c6fb"/><stop offset="1" stop-color="#005bea"/></linearGradient><linearGradient id="d" x1="802" y1="149.03" x2="802" y2="399" xlink:href="#c"/><linearGradient id="e" x1="898" y1="149.03" x2="898" y2="399" xlink:href="#c"/><linearGradient id="f" x1="1080" y1="274" x2="1300" y2="274" gradientTransform="matrix(1, 0, 0, -1, 0, 546)" gradientUnits="userSpaceOnUse"><stop offset="0" stop-color="#434343"/><stop offset="1"/></linearGradient><linearGradient id="g" x1="1530.01" y1="394" x2="1530.01" y2="154" gradientTransform="matrix(1, 0, 0, -1, 0, 546)" gradientUnits="userSpaceOnUse"><stop offset="0" stop-color="#52c234"/><stop offset="0.18" stop-color="#4cb02d"/><stop offset="0.54" stop-color="#3e801b"/><stop offset="1" stop-color="#283900"/></linearGradient></defs><title>face_sprite</title><path class="a" d="M1700,22V522a22,22,0,0,1-22,22H1382a22,22,0,0,1-22-22,22,22,0,0,1-22,22H1042a22,22,0,0,1-22-22,22,22,0,0,1-22,22H702a22,22,0,0,1-22-22,22,22,0,0,1-22,22H362a22,22,0,0,1-22-22,22,22,0,0,1-22,22H22A22,22,0,0,1,0,522V22A22,22,0,0,1,22,0H318a22,22,0,0,1,22,22A22,22,0,0,1,362,0H658a22,22,0,0,1,22,22A22,22,0,0,1,702,0H998a22,22,0,0,1,22,22,22,22,0,0,1,22-22h296a22,22,0,0,1,22,22,22,22,0,0,1,22-22h296A22,22,0,0,1,1700,22Z"/><path class="b" d="M170,184a88,88,0,1,1-88,88,88,88,0,0,1,88-88m0-32A120,120,0,1,0,290,272,120,120,0,0,0,170,152Z"/><path class="c" d="M39,30a9,9,0,1,1-9,9,9,9,0,0,1,9-9m0-6A15,15,0,1,0,54,39,15,15,0,0,0,39,24Z"/><path class="c" d="M301,496a9,9,0,1,1-9,9,9,9,0,0,1,9-9m0-6a15,15,0,1,0,15,15h0A15,15,0,0,0,301,490Z"/><line class="d" x1="74" y1="26" x2="234" y2="26"/><line class="d" x1="26" y1="74" x2="26" y2="374"/><line class="d" x1="266" y1="518" x2="106" y2="518"/><line class="d" x1="314" y1="470" x2="314" y2="170"/><polygon class="e" points="630 256 630 288 526 288 526 392 494 392 494 288 390 288 390 256 494 256 494 152 526 152 526 256 630 256"/><polygon class="f" points="394 36 394 42 382 42 382 54 376 54 376 42 364 42 364 36 376 36 376 24 382 24 382 36 394 36"/><polygon class="f" points="656 502 656 508 644 508 644 520 638 520 638 508 626 508 626 502 638 502 638 490 644 490 644 502 656 502"/><line class="d" x1="414" y1="26" x2="574" y2="26"/><line class="d" x1="366" y1="74" x2="366" y2="374"/><line class="d" x1="606" y1="518" x2="446" y2="518"/><line class="d" x1="654" y1="470" x2="654" y2="170"/><path class="g" d="M834.22,147c9.6,10.94,13.81,31.38,11.12,45.32-2.51,10.17-7.79,19.74-13.14,28.55-5.46,10-12.46,19.93-14.27,31.41-3.44,15.86,4.12,31.42,13.77,43.9,6.08,9.18,12.66,17.75,17.57,27.65,6.53,12.28,4.7,27-1.27,39.14-5.41,11.26-12,22.14-15.93,34h31.07c6-12.87,13.24-29.67,18.27-42.94,2.68-12,2.14-25.32-4.65-36-8.07-14.43-19.36-27.09-26.19-42.12-7.32-15.85-.74-33.54,8.14-47.47,7.47-14.63,18.53-29.13,17.43-46.22,1.3-13.06-6.48-24.55-13.26-35.2Z"/><path class="h" d="M786.23,147c9.59,10.94,13.8,31.38,11.12,45.32-2.52,10.17-7.79,19.74-13.15,28.55-5.46,10-12.46,19.93-14.27,31.41-3.44,15.86,4.12,31.42,13.77,43.9,6.08,9.18,12.67,17.75,17.57,27.65,6.53,12.28,4.7,27-1.26,39.14-5.42,11.26-12,22.14-15.94,34h31.08c6-12.87,13.23-29.67,18.27-42.94,2.68-12,2.13-25.32-4.66-36-8.07-14.43-19.36-27.09-26.18-42.12-7.33-15.85-.75-33.54,8.14-47.47,7.46-14.63,18.52-29.13,17.42-46.22,1.3-13.06-6.47-24.55-13.25-35.2Z"/><path class="i" d="M882.22,147c9.6,10.94,13.81,31.38,11.12,45.32-2.51,10.17-7.79,19.74-13.14,28.55-5.46,10-12.46,19.93-14.27,31.41-3.44,15.86,4.12,31.42,13.77,43.9,6.08,9.18,12.66,17.75,17.57,27.65,6.53,12.28,4.7,27-1.27,39.14-5.42,11.26-12,22.14-15.94,34h31.08c6-12.87,13.24-29.67,18.27-42.94,2.68-12,2.14-25.32-4.65-36-8.07-14.43-19.36-27.09-26.19-42.12-7.32-15.85-.74-33.54,8.14-47.47,7.46-14.63,18.53-29.13,17.43-46.22,1.3-13.06-6.48-24.55-13.26-35.2Z"/><path class="j" d="M706.06,24a7.19,7.19,0,0,1,1.33,5.44,12.37,12.37,0,0,1-1.58,3.42,12.73,12.73,0,0,0-1.71,3.77,6.6,6.6,0,0,0,1.65,5.27,31,31,0,0,1,2.11,3.32,5.16,5.16,0,0,1-.15,4.7A34.39,34.39,0,0,0,705.8,54h5.73c.71-1.54,1.59-3.56,2.19-5.15a5.74,5.74,0,0,0-.56-4.33c-1-1.73-2.32-3.25-3.14-5.05s-.09-4,1-5.7c.89-1.75,2.22-3.49,2.09-5.54.15-1.57-.78-2.95-1.59-4.23Z"/><path class="j" d="M716.06,24a7.19,7.19,0,0,1,1.33,5.44,12.37,12.37,0,0,1-1.58,3.42,12.73,12.73,0,0,0-1.71,3.77,6.6,6.6,0,0,0,1.65,5.27,31,31,0,0,1,2.11,3.32,5.16,5.16,0,0,1-.15,4.7A34.39,34.39,0,0,0,715.8,54h5.73c.71-1.54,1.59-3.56,2.19-5.15a5.74,5.74,0,0,0-.56-4.33c-1-1.73-2.32-3.25-3.14-5.05s-.09-4,1-5.7c.89-1.75,2.22-3.49,2.09-5.54.15-1.57-.78-2.95-1.59-4.23Z"/><path class="j" d="M726.06,24a7.19,7.19,0,0,1,1.33,5.44,12.37,12.37,0,0,1-1.58,3.42,12.73,12.73,0,0,0-1.71,3.77,6.6,6.6,0,0,0,1.65,5.27,31,31,0,0,1,2.11,3.32,5.16,5.16,0,0,1-.15,4.7A34.39,34.39,0,0,0,725.8,54h5.73c.71-1.54,1.59-3.56,2.19-5.15a5.74,5.74,0,0,0-.56-4.33c-1-1.73-2.32-3.25-3.14-5.05s-.09-4,1-5.7c.89-1.75,2.22-3.49,2.09-5.54.15-1.57-.78-2.95-1.59-4.23Z"/><path class="j" d="M968.16,490a7.19,7.19,0,0,1,1.33,5.44,12.37,12.37,0,0,1-1.58,3.42,12.73,12.73,0,0,0-1.71,3.77,6.6,6.6,0,0,0,1.65,5.27,31,31,0,0,1,2.11,3.32,5.16,5.16,0,0,1-.15,4.7A34.39,34.39,0,0,0,967.9,520h5.73c.71-1.54,1.59-3.56,2.19-5.15a5.74,5.74,0,0,0-.56-4.33c-1-1.73-2.32-3.25-3.14-5s-.09-4,1-5.7c.89-1.75,2.22-3.49,2.09-5.54.15-1.57-.78-3-1.59-4.23Z"/><path class="j" d="M978.16,490a7.19,7.19,0,0,1,1.33,5.44,12.37,12.37,0,0,1-1.58,3.42,12.73,12.73,0,0,0-1.71,3.77,6.6,6.6,0,0,0,1.65,5.27,31,31,0,0,1,2.11,3.32,5.16,5.16,0,0,1-.15,4.7A34.39,34.39,0,0,0,977.9,520h5.73c.71-1.54,1.59-3.56,2.19-5.15a5.74,5.74,0,0,0-.56-4.33c-1-1.73-2.32-3.25-3.14-5s-.09-4,1-5.7c.89-1.75,2.22-3.49,2.09-5.54.15-1.57-.78-3-1.59-4.23Z"/><path class="j" d="M988.16,490a7.19,7.19,0,0,1,1.33,5.44,12.37,12.37,0,0,1-1.58,3.42,12.73,12.73,0,0,0-1.71,3.77,6.6,6.6,0,0,0,1.65,5.27,31,31,0,0,1,2.11,3.32,5.16,5.16,0,0,1-.15,4.7A34.39,34.39,0,0,0,987.9,520h5.73c.71-1.54,1.59-3.56,2.19-5.15a5.74,5.74,0,0,0-.56-4.33c-1-1.73-2.32-3.25-3.14-5s-.09-4,1-5.7c.89-1.75,2.22-3.49,2.09-5.54.15-1.57-.78-3-1.59-4.23Z"/><line class="d" x1="754" y1="26" x2="914" y2="26"/><line class="d" x1="706" y1="74" x2="706" y2="374"/><line class="d" x1="946" y1="518" x2="786" y2="518"/><line class="d" x1="994" y1="470" x2="994" y2="170"/><path class="k" d="M1268,194V350H1112V194h156m32-32H1080V382h220Z"/><path class="l" d="M1068,30V48h-18V30h18m6-6h-30V54h30Z"/><path class="l" d="M1330,496v18h-18V496h18m6-6h-30v30h30Z"/><line class="d" x1="1094" y1="26" x2="1254" y2="26"/><line class="d" x1="1046" y1="74" x2="1046" y2="374"/><line class="d" x1="1286" y1="518" x2="1126" y2="518"/><line class="d" x1="1334" y1="470" x2="1334" y2="170"/><path class="m" d="M1530,210.75l15.68,31.76,6,12.26,13.53,2,35,5.1-25.36,24.72-9.79,9.54,2.31,13.47,6,34.91L1542.1,328l-12.1-6.37L1517.9,328l-31.35,16.48,6-34.91,2.31-13.47-9.79-9.54-25.37-24.73,35-5.1,13.53-2,6-12.26L1530,210.75m0-58.75-39,79-87.18,12.67,63.09,61.5L1452,392l78-41,78,41-14.89-86.83,63.09-61.5L1569,231Z"/><path class="n" d="M1401.87,33l1.94,4,.93,1.89,2.08.3,4.33.63-3.13,3-1.51,1.48.36,2.07.74,4.32-3.87-2-1.87-1-1.86,1-3.87,2,.74-4.32.36-2.07-1.51-1.47-3.13-3,4.33-.63,2.08-.3.93-1.9,1.93-4m0-9-5.52,11.19L1384,37l8.94,8.71L1390.83,58l11-5.81L1412.92,58l-2.11-12.3,8.94-8.7-12.35-1.81Z"/><path class="n" d="M1658.13,495l1.93,3.92.93,1.89,2.08.3,4.33.63-3.13,3.05-1.51,1.47.36,2.07.74,4.32-3.87-2-1.86-1-1.87,1-3.87,2,.74-4.32.36-2.07-1.49-1.43-3.13-3.05,4.33-.63,2.08-.3.93-1.89,1.94-3.92m0-9-5.53,11.19L1640.25,499l8.94,8.71L1647.08,520l11.05-5.81,11,5.81L1667,507.7l9-8.7-12.35-1.8-5.52-11.2Z"/><line class="d" x1="1434" y1="26" x2="1594" y2="26"/><line class="d" x1="1386" y1="74" x2="1386" y2="374"/><line class="d" x1="1626" y1="518" x2="1466" y2="518"/><line class="d" x1="1674" y1="470" x2="1674" y2="170"/></svg>