<svg xmlns="http://www.w3.org/2000/svg" xmlns:xlink="http://www.w3.org/1999/xlink" viewBox="0 0 925 281"><defs><style>.a{fill:url(#a);}.b{fill:url(#b);}.c{fill:url(#c);}.d{fill:url(#d);}.e{fill:url(#e);}.f{fill:url(#f);}.g{fill:url(#g);}.h{fill:url(#h);}.i{fill:url(#i);}.j{fill:url(#j);}.k{fill:url(#k);}.l{fill:url(#l);}.m{fill:url(#m);}.n{fill:url(#n);}.o{fill:url(#o);}.p{fill:url(#p);}</style><linearGradient id="a" x1="229.75" y1="-108.75" x2="695.25" y2="356.75" gradientUnits="userSpaceOnUse"><stop offset="0" stop-color="#caa97a"/><stop offset="0.09" stop-color="#d5bb98"/><stop offset="0.19" stop-color="#dfccb5"/><stop offset="0.3" stop-color="#e6d8c9"/><stop offset="0.4" stop-color="#ebe0d6"/><stop offset="0.5" stop-color="#ece2da"/><stop offset="0.59" stop-color="#ebdfd6"/><stop offset="0.68" stop-color="#e7d7c9"/><stop offset="0.77" stop-color="#e0c9b5"/><stop offset="0.86" stop-color="#d7b598"/><stop offset="0.96" stop-color="#cb9c73"/><stop offset="1" stop-color="#c58e5e"/></linearGradient><linearGradient id="b" x1="-13.15" y1="27.15" x2="44.15" y2="84.45" xlink:href="#a"/><linearGradient id="c" x1="-2.5" y1="35.5" x2="49.5" y2="87.5" xlink:href="#a"/><linearGradient id="d" x1="7.25" y1="40.75" x2="55.75" y2="89.25" xlink:href="#a"/><linearGradient id="e" x1="26" y1="52" x2="67" y2="93" xlink:href="#a"/><linearGradient id="f" x1="36" y1="58" x2="73" y2="95" xlink:href="#a"/><linearGradient id="g" x1="230.75" y1="15.25" x2="694.25" y2="478.75" xlink:href="#a"/><linearGradient id="h" x1="230.75" y1="26.25" x2="694.25" y2="489.75" xlink:href="#a"/><linearGradient id="i" x1="230.75" y1="37.25" x2="694.25" y2="500.75" xlink:href="#a"/><linearGradient id="j" x1="230.75" y1="48.25" x2="694.25" y2="511.75" xlink:href="#a"/><linearGradient id="k" x1="880.85" y1="27.15" x2="938.15" y2="84.45" xlink:href="#a"/><linearGradient id="l" x1="875.5" y1="35.5" x2="927.5" y2="87.5" xlink:href="#a"/><linearGradient id="m" x1="869.25" y1="40.75" x2="917.75" y2="89.25" xlink:href="#a"/><linearGradient id="n" x1="858" y1="52" x2="899" y2="93" xlink:href="#a"/><linearGradient id="o" x1="852" y1="58" x2="889" y2="95" xlink:href="#a"/><linearGradient id="p" x1="208.88" y1="-75.88" x2="716.13" y2="431.38" xlink:href="#a"/></defs><title>Bar</title><polygon class="a" points="837.51 174 87.49 174 87.49 127 0 127 0 121 93.49 121 93.49 168 831.51 168 831.51 121 925 121 925 127 837.51 127 837.51 174"/><rect class="b" x="14" width="3" height="111.6"/><rect class="c" x="22" y="11" width="3" height="101"/><rect class="d" x="30" y="18" width="3" height="94"/><rect class="e" x="45" y="33" width="3" height="79"/><rect class="f" x="53" y="41" width="3" height="71"/><rect class="g" y="246" width="925" height="2"/><rect class="h" y="257" width="925" height="2"/><rect class="i" y="268" width="925" height="2"/><rect class="j" y="279" width="925" height="2"/><rect class="k" x="908" width="3" height="111.6"/><rect class="l" x="900" y="11" width="3" height="101"/><rect class="m" x="892" y="18" width="3" height="94"/><rect class="n" x="877" y="33" width="3" height="79"/><rect class="o" x="869" y="41" width="3" height="71"/><path class="p" d="M844,133v47H81V133H0v6H14v97.5H911V139h14v-6ZM730,186H850V139h19v56.5H730Zm-27,0h24v12.5H872V139h5v64.5H703Zm0,20.5H880V139h12v78.5H703Zm0,14H895V139h5v86.5H703ZM225,186H700v17.5H225Zm0,20.5H700V211H225Zm0,6.5H700v4.5H225ZM56,139H75v47H195v9.5H56Zm-8,0h5v59.5H198V186h24v17.5H48Zm-15,0H45v67.5H222v11H33Zm-8,0h5v81.5H222v5H25Zm883,94.5H17V139h5v89.5H225v-8H700v8H903V139h5Z"/></svg>